<?xml version="1.0" encoding="UTF-8" standalone="no"?>
<!-- Created with Inkscape (http://www.inkscape.org/) -->

<svg
   width="900mm"
   height="900mm"
   viewBox="0 0 900 900"
   version="1.1"
   id="svg1"
   xml:space="preserve"
   inkscape:version="1.4 (86a8ad7, 2024-10-11)"
   sodipodi:docname="beltane logo titulo.svg"
   inkscape:export-filename="beltane logo titulo.png"
   inkscape:export-xdpi="72"
   inkscape:export-ydpi="72"
   xmlns:inkscape="http://www.inkscape.org/namespaces/inkscape"
   xmlns:sodipodi="http://sodipodi.sourceforge.net/DTD/sodipodi-0.dtd"
   xmlns="http://www.w3.org/2000/svg"
   xmlns:svg="http://www.w3.org/2000/svg"><sodipodi:namedview
     id="namedview1"
     pagecolor="#505050"
     bordercolor="#eeeeee"
     borderopacity="1"
     inkscape:showpageshadow="0"
     inkscape:pageopacity="0"
     inkscape:pagecheckerboard="0"
     inkscape:deskcolor="#505050"
     inkscape:document-units="px"
     inkscape:zoom="0.125"
     inkscape:cx="1524"
     inkscape:cy="1316"
     inkscape:window-width="1920"
     inkscape:window-height="1057"
     inkscape:window-x="1912"
     inkscape:window-y="-8"
     inkscape:window-maximized="1"
     inkscape:current-layer="layer1" /><defs
     id="defs1" /><g
     inkscape:groupmode="layer"
     id="layer2"
     inkscape:label="fondo"><ellipse
       style="fill:#00112b;stroke-width:0.272623;stroke-linejoin:bevel;stroke-opacity:0.994819"
       id="path2"
       cx="450"
       cy="450"
       rx="442.7262"
       ry="450.00003"
       inkscape:label="fondo" /><ellipse
       style="fill:#ffffff;stroke-width:0.244412;stroke-linejoin:bevel;stroke-opacity:0.994819"
       id="path2-2"
       cx="449.99997"
       cy="449.99997"
       rx="410.3826"
       ry="417.12503" /></g><g
     inkscape:label="logo"
     inkscape:groupmode="layer"
     id="layer1"
     style="display:inline"
     transform="matrix(0.70480356,0,0,0.70480356,132.8384,132.8384)"><path
       style="fill:#00112b;stroke-width:1.1328"
       d="m 77.866552,847.23127 c -1.62531,-1.64312 -1.159995,-2.84591 1.811437,-4.68236 5.749069,-3.55312 5.527289,-1.56162 5.808429,-52.15865 0.17201,-30.95671 -0.0266,-46.6876 -0.62417,-49.44651 -0.65297,-3.01446 -1.68196,-4.8327 -4.035631,-7.131 -1.737551,-1.69668 -3.159191,-3.54976 -3.159191,-4.11796 0,-0.82703 5.628662,-1.03311 28.218034,-1.03311 15.52076,0 31.02161,0.38156 34.44857,0.84795 11.67876,1.58945 21.15264,7.67392 25.63787,16.46569 3.38063,6.62655 3.60164,17.86444 0.48065,24.44136 -3.0929,6.5178 -13.25031,14.79634 -18.15434,14.79634 -0.78628,0 -1.20802,0.35843 -0.93728,0.79651 0.27075,0.43806 1.09078,0.79649 1.82223,0.79649 3.59258,0 12.39583,4.35511 16.63513,8.22957 6.58646,6.01961 9.24482,12.19348 9.31766,21.63909 0.0487,6.36306 -0.19756,7.66068 -2.19537,11.54922 -1.23782,2.40941 -3.37769,5.57559 -4.7554,7.03597 -3.95746,4.19525 -12.15353,8.51795 -20.02766,10.56292 -6.80646,1.76769 -8.73744,1.87568 -38.23194,2.13837 -24.270992,0.21615 -31.281105,0.0565 -32.059028,-0.72989 z m 58.577198,-15.80683 c 10.22889,-4.44823 13.94675,-14.76061 9.05191,-25.10735 -2.47597,-5.23351 -5.9001,-8.17264 -12.07344,-10.36307 -4.2069,-1.49272 -15.2454,-2.43466 -19.39928,-1.65538 l -2.90261,0.54454 v 19.58201 19.58199 l 10.55357,-0.37459 c 8.71762,-0.30944 11.28716,-0.6936 14.76985,-2.20815 z m -4.85191,-52.86134 c 2.23457,-1.13232 4.81577,-3.01598 5.73607,-4.18595 4.08625,-5.19486 5.39996,-18.39128 2.47291,-24.84058 -1.29525,-2.85388 -2.28249,-3.7416 -5.97895,-5.37636 -3.86354,-1.70865 -5.59129,-1.95807 -13.56454,-1.95807 h -9.137 v 19.6286 19.62856 l 8.20436,-0.41872 c 6.71028,-0.34248 8.94429,-0.79365 12.26715,-2.47748 z m 59.61782,68.19879 c -0.3796,-0.98906 0.47215,-2.27321 3.03773,-4.57985 1.96089,-1.76299 4.04162,-4.10148 4.62389,-5.19667 1.43809,-2.70516 2.03972,-89.03902 0.6645,-95.35891 -0.73848,-3.39363 -1.57279,-4.74756 -4.52919,-7.3499 -6.58386,-5.79535 -7.7511,-5.61488 36.31286,-5.61488 26.62081,0 39.17217,0.26814 39.52832,0.84443 0.28694,0.46443 0.72013,6.55764 0.96243,13.54045 0.43409,12.50887 0.41585,12.69605 -1.23317,12.69605 -1.08296,0 -2.52921,-1.24356 -4.09815,-3.52384 -5.44675,-7.91668 -11.48448,-10.01663 -28.7993,-10.01663 h -11.86363 v 18.71765 18.71762 l 11.35013,-0.30394 c 14.49674,-0.38821 17.49493,-1.17449 20.22838,-5.30507 1.14742,-1.73378 2.53228,-3.15233 3.0775,-3.15233 2.4668,0 2.81672,2.21282 2.59911,16.43242 -0.21286,13.89792 -0.25839,14.2385 -1.93789,14.4778 -1.21958,0.17377 -2.14134,-0.46832 -3.16857,-2.20729 -2.39192,-4.04919 -6.92258,-5.66994 -17.27517,-6.1798 -4.97584,-0.24506 -10.35791,-0.19963 -11.96026,0.10093 l -2.91323,0.54652 v 19.87634 19.87636 l 10.95184,-0.0158 c 6.02358,-0.009 13.41841,-0.3723 16.43292,-0.80808 7.57031,-1.09431 15.65729,-5.42315 19.71035,-10.55073 1.69638,-2.14605 3.08429,-4.22815 3.08429,-4.62689 0,-0.39873 0.89605,-0.72497 1.99124,-0.72497 1.81284,0 1.99057,0.3034 1.984,3.38512 -0.0113,3.57042 -2.08663,22.83175 -2.79406,25.88618 l -0.41506,1.79211 h -42.51225 c -39.52413,0 -42.54928,-0.0966 -43.03956,-1.37444 z m 106.82906,0.85043 c -1.30363,-1.30366 -0.31764,-3.46465 2.32621,-5.09868 1.8407,-1.13758 3.40612,-3.03443 4.38078,-5.30822 1.43289,-3.3429 1.51558,-6.05037 1.49904,-49.07157 -0.0159,-42.8851 -0.10535,-45.72576 -1.51886,-48.83989 -0.8257,-1.81853 -2.60999,-4.12609 -3.96493,-5.1279 -1.5183,-1.12247 -2.46363,-2.52811 -2.46363,-3.66292 v -1.84146 h 20.31063 20.31074 v 2.00833 c 0,1.34079 -0.62848,2.29465 -1.89076,2.86977 -1.0398,0.47379 -2.7423,2.34784 -3.78335,4.16454 l -1.89269,3.30308 -0.22939,46.39599 -0.22939,46.39599 9.78732,-0.006 c 21.18062,-0.013 29.52758,-3.62952 40.52587,-17.55885 1.50958,-1.91188 2.45173,-2.466 3.50557,-2.06162 1.3161,0.50503 1.39302,1.29419 0.88676,9.09413 -0.30484,4.69761 -1.16554,12.12536 -1.91262,16.5061 l -1.35823,7.96497 -41.8755,0.2061 c -23.03163,0.11336 -42.11769,-0.0361 -42.41357,-0.33187 z m 109.12581,0.006 c -1.25854,-1.25857 -0.36352,-3.41229 2.24499,-5.4019 5.83531,-4.45079 5.57466,-1.99062 5.57466,-52.62221 v -45.40035 l -9.22127,0.13139 c -13.91639,0.19826 -20.09437,2.54599 -23.73214,9.01856 -2.06273,3.67013 -2.69155,4.17083 -4.41013,3.51139 -1.5388,-0.59052 -1.5882,-5.20168 -0.19971,-18.63507 l 0.94679,-9.15973 49.86823,-0.20507 49.86834,-0.20506 0.499,2.49499 c 0.27448,1.37226 0.499,7.82656 0.499,14.34291 0,11.18193 -0.0861,11.84791 -1.54039,11.84791 -0.91621,0 -2.44924,-1.34196 -3.78334,-3.31172 -3.81948,-5.63929 -7.21925,-7.79532 -14.27493,-9.05269 -3.45811,-0.61625 -8.88606,-1.13299 -12.06211,-1.14827 l -5.7747,-0.0278 v 45.61193 c 0,51.41493 -0.34867,48.4365 6.2233,53.15808 2.16728,1.55704 3.3395,2.96746 3.17548,3.82057 -0.23586,1.22612 -2.27185,1.37213 -21.80888,1.56404 -11.85174,0.1164 -21.79324,-0.033 -22.09219,-0.33188 z m 66.74227,-0.30764 c -0.67855,-1.09785 0.21874,-4.74938 1.16701,-4.74938 1.62025,0 5.55573,-4.21193 7.25165,-7.76088 2.08005,-4.35308 5.78671,-13.7338 7.94878,-20.11654 0.81607,-2.4094 2.59876,-7.42734 3.96153,-11.15097 1.36266,-3.72362 3.15713,-8.74157 3.9877,-11.15096 0.83057,-2.40941 2.62765,-7.42735 3.99371,-11.15097 1.36593,-3.72364 3.37213,-9.2792 4.45826,-12.34571 1.08613,-3.06652 2.80539,-7.90525 3.8205,-10.75272 1.0151,-2.84748 3.03332,-8.68051 4.48477,-12.96228 l 2.63921,-7.78504 -2.93057,-3.00127 c -2.85704,-2.92587 -3.73281,-5.31893 -2.14235,-5.85457 0.43352,-0.14604 7.91774,-0.16178 16.63173,-0.035 l 15.84341,0.23051 1.01476,3.75198 c 0.55814,2.06359 1.27022,4.11041 1.58241,4.54847 0.31209,0.43808 1.17813,2.76784 1.92453,5.17724 0.74629,2.40941 1.69864,5.09759 2.11631,5.97373 0.41766,0.87615 1.44749,3.74355 2.2886,6.37198 0.841,2.62845 2.64408,7.82559 4.00673,11.54922 1.36277,3.72363 3.14421,8.74157 3.95893,11.15097 2.97406,8.79605 18.72141,52.7348 20.63903,57.58789 0.48495,1.2272 2.7066,3.98099 4.93698,6.11949 2.58495,2.4784 3.95429,4.41295 3.77666,5.33544 -0.26111,1.35598 -1.63328,1.44723 -21.76232,1.44723 -20.31503,0 -21.49916,-0.0806 -21.7691,-1.48219 -0.17423,-0.90512 0.90646,-2.70275 2.77582,-4.61719 2.64589,-2.70961 3.0435,-3.58927 2.93079,-6.48279 -0.13378,-3.43182 -4.59137,-19.54131 -5.71942,-20.66932 -0.34516,-0.3452 -9.69714,-0.53173 -20.78221,-0.41453 l -20.15441,0.21311 -2.30174,7.50277 c -4.21756,13.74802 -3.89074,18.35581 1.48487,20.93223 1.5345,0.7355 2.20513,1.65912 2.20513,3.03739 v 1.98052 l -16.86894,0.2148 c -11.40633,0.14523 -17.04045,-0.0629 -17.39875,-0.64265 z m 69.71179,-46.39435 c 0,-0.1249 -0.91214,-2.90269 -2.02693,-6.17285 -1.11479,-3.27017 -2.69936,-8.09632 -3.52121,-10.72475 -3.56992,-11.41695 -9.62828,-29.28574 -10.34692,-30.51773 -0.70257,-1.20443 -0.78549,-1.20957 -0.80713,-0.0501 -0.0136,0.71065 -3.42934,11.57073 -7.59104,24.13349 -4.1617,12.56277 -7.56668,23.00287 -7.56668,23.20021 0,0.19736 7.1685,0.35883 15.92995,0.35883 8.76145,0 15.92996,-0.10218 15.92996,-0.22709 z m 59.6586,45.93092 c -0.93411,-1.12552 -0.58725,-1.69722 2.72723,-4.49485 6.77848,-5.72155 6.46311,-3.29531 6.74121,-51.84798 0.17321,-30.24127 -0.026,-44.20498 -0.67458,-47.33006 -0.74244,-3.57644 -1.67327,-5.22915 -4.81772,-8.55392 -2.1436,-2.26653 -3.89775,-4.624 -3.8982,-5.23877 -6.8e-4,-0.93055 2.70094,-1.07734 16.12899,-0.87633 14.08281,0.21082 16.25304,0.41299 17.09958,1.593 1.33354,1.85894 9.6925,13.13985 30.21587,40.77817 9.59622,12.92318 19.22937,25.94413 21.40684,28.93548 l 3.95893,5.43879 0.20832,-31.5379 c 0.19802,-29.99001 0.13163,-31.68822 -1.35449,-34.60127 -0.85957,-1.68488 -2.89478,-4.1319 -4.52273,-5.43784 -2.05366,-1.64756 -2.80482,-2.77809 -2.45376,-3.69304 0.44813,-1.16789 2.37515,-1.3186 16.85919,-1.3186 h 16.35317 v 1.93757 c 0,1.23826 -0.57512,2.12011 -1.59352,2.44333 -0.87645,0.27817 -2.57894,1.79742 -3.78333,3.37611 l -2.18983,2.87035 -0.39829,54.22453 -0.39819,54.22451 -8.09831,0.22626 -8.09819,0.22627 -3.45098,-4.35752 c -4.04242,-5.10437 -13.27852,-17.33162 -15.00015,-19.85817 -0.65714,-0.96429 -5.47178,-7.48163 -10.69934,-14.48298 -8.45243,-11.32058 -13.92999,-18.70677 -29.81883,-40.20887 -2.42783,-3.28556 -4.71586,-6.33135 -5.08448,-6.76843 -0.36873,-0.43709 -0.56356,15.71874 -0.43319,35.90182 l 0.23722,36.69651 2.13669,3.22759 c 1.17518,1.77518 3.41541,4.01782 4.97812,4.98365 1.5627,0.96584 2.84141,2.01356 2.84141,2.32829 0,2.13733 -2.50871,2.48383 -17.98306,2.48383 -13.83902,0 -16.21994,-0.17911 -17.1416,-1.28953 z m 131.5233,-0.2614 c -0.71321,-1.33267 -0.33859,-1.88901 2.66152,-3.95319 6.26351,-4.3094 6.07989,-2.64704 6.05995,-54.84669 -0.0159,-42.94226 -0.11431,-46.19222 -1.48308,-49.16762 -0.80598,-1.75229 -2.61258,-4.1943 -4.01454,-5.42669 -1.40196,-1.23239 -2.40732,-2.66608 -2.234,-3.186 0.23607,-0.70847 10.10541,-0.99703 39.39714,-1.15187 l 39.08211,-0.20658 0.45652,4.58732 c 0.25102,2.52303 0.55553,8.31059 0.67651,12.86124 0.19506,7.33997 0.0532,8.37393 -1.25435,9.15973 -1.23691,0.74317 -1.74985,0.50171 -3.18602,-1.4996 -6.69556,-9.33079 -10.68281,-10.89313 -28.99177,-11.36019 l -12.94309,-0.33018 v 18.28524 18.28525 l 6.96936,0.5171 c 8.45526,0.62736 19.30289,-0.54154 22.11303,-2.38279 1.1344,-0.74327 2.59096,-2.37344 3.23699,-3.6226 1.43323,-2.7717 4.0994,-3.04171 4.7306,-0.4791 0.24287,0.98566 0.33928,7.88533 0.21432,15.33258 -0.22225,13.24918 -0.26473,13.5458 -1.97323,13.78895 -1.28256,0.18253 -2.09059,-0.41755 -3.0435,-2.26016 -1.95398,-3.77868 -6.77735,-5.55516 -16.59186,-6.11095 -4.51049,-0.25542 -9.87829,-0.21289 -11.92832,0.0945 l -3.72739,0.55896 v 19.86364 19.86363 h 10.40108 c 5.72056,0 12.97866,-0.39928 16.1291,-0.8873 9.20212,-1.42546 18.15344,-6.73656 22.09061,-13.10709 2.00302,-3.2409 4.49067,-3.62283 5.19958,-0.79829 0.26688,1.06356 0.28183,2.58686 0.0329,3.38511 -0.24866,0.79825 -1.01976,6.62842 -1.71337,12.95594 -0.69373,6.32751 -1.4398,11.79348 -1.65798,12.14658 -0.21829,0.35311 -19.18031,0.64201 -42.13796,0.64201 -40.54853,0 -41.7647,-0.0442 -42.57104,-1.55093 z M 441.54947,690.38051 c -11.49423,-3.65275 -27.49114,-12.44393 -41.9455,-23.05136 -1.17846,-0.86485 -5.01006,-2.09956 -8.51473,-2.7438 -27.66627,-5.08578 -49.0832,-12.93279 -76.86194,-28.16171 -17.1603,-9.40763 -32.57608,-20.22474 -49.03177,-34.40513 -6.71549,-5.78702 -29.04002,-28.65518 -34.99031,-35.84235 -25.7303,-31.07932 -44.99399,-65.83511 -56.06591,-101.15521 -4.29956,-13.71573 -4.94232,-16.01415 -6.53731,-23.37506 -6.05959,-27.96597 -8.4122,-52.18966 -7.51514,-77.38189 0.55417,-15.56285 0.92969,-19.73073 3.18953,-35.39991 2.63275,-18.25482 9.58081,-43.69278 16.32847,-59.78157 1.37806,-3.28555 2.99016,-7.27786 3.58272,-8.87181 2.39748,-6.44974 13.79553,-28.03561 19.28828,-36.52855 4.32902,-6.69341 8.64454,-12.72036 9.11659,-12.73169 0.28138,-0.007 3.10275,3.06482 6.26973,6.82571 6.40159,7.60191 6.29715,6.69604 1.59896,13.87095 -4.6027,7.02892 -14.22011,25.66865 -18.44909,35.75629 -1.76458,4.20906 -3.6789,8.72811 -4.25414,10.04233 -0.57524,1.31422 -2.49964,6.76742 -4.27645,12.11823 -15.36639,46.27414 -17.702,100.27373 -6.38325,147.57955 7.69673,32.16784 18.41794,57.74902 35.7545,85.3116 5.25758,8.35863 16.34321,23.80859 17.08315,23.80859 0.89242,0 12.81633,-4.98237 17.10445,-7.14699 2.57204,-1.29834 6.85959,-4.38189 9.52803,-6.85233 l 4.85157,-4.49172 v -4.7183 c 0,-2.63998 -0.71491,-6.84026 -1.62285,-9.53558 -2.08561,-6.19114 -2.83394,-15.83828 -1.65503,-21.33554 1.89077,-8.81661 5.2049,-14.39598 18.6795,-31.44704 9.10922,-11.52707 11.87927,-21.9592 10.05183,-37.8551 -1.24178,-10.8022 -1.23623,-19.58531 0.0159,-25.16422 1.80546,-8.04324 7.46224,-17.99681 16.35725,-28.78177 9.50819,-11.52843 12.59883,-16.33468 14.39036,-22.37848 0.67934,-2.29179 1.59227,-4.38755 2.02862,-4.65724 1.8654,-1.15289 2.29767,-4.37949 0.93117,-6.95147 -1.02405,-1.92754 -1.43198,-5.22362 -1.68369,-13.6048 -0.4077,-13.57606 0.2303,-16.11789 5.05866,-20.15389 3.04283,-2.54345 3.55746,-3.40265 3.55746,-5.93911 0,-8.70194 -5.50136,-13.40864 -29.0722,-24.8728 -11.25668,-5.47492 -25.42161,-13.11364 -33.90212,-18.28238 -21.86282,-13.32503 -48.80568,-40.68654 -62.74211,-63.71706 -8.80813,-14.55572 -17.03728,-34.43361 -19.34764,-46.73499 -1.2684,-6.75385 -1.2983,-27.43676 -0.051,-35.04591 2.03917,-12.435771 8.08371,-27.859073 14.3591,-36.638883 3.77734,-5.284791 15.027,-16.435299 17.69747,-17.541433 1.27396,-0.527689 2.90406,-0.733877 3.62237,-0.458209 1.79912,0.690401 1.10539,3.679557 -2.94959,12.707885 -5.09276,11.338895 -7.80107,19.996467 -9.50412,30.381433 -3.54704,21.628967 -0.92086,40.889947 7.97914,58.520537 1.30068,2.57674 2.71465,4.90112 3.14206,5.16527 0.4274,0.26417 1.17959,-1.0538 1.67145,-2.92884 9.04307,-34.47375 18.70838,-52.4601 38.34148,-71.350081 7.28575,-7.009955 11.68103,-10.364008 17.7881,-13.574132 7.10019,-3.732108 8.98291,-3.280172 8.00689,1.922069 -0.32149,1.713592 -3.3889,6.546075 -8.18293,12.891406 -11.03817,14.609928 -16.35952,23.303298 -22.05832,36.036438 -4.73965,10.58974 -9.22726,31.25904 -9.22726,42.49905 0,10.87022 4.89722,29.80266 9.81564,37.94721 2.889,4.78377 8.21238,11.43348 11.41063,14.25339 4.99488,4.40409 14.59529,10.79241 20.89595,13.90473 6.60584,3.26301 8.51212,3.63786 7.68619,1.51142 -2.35714,-6.06826 -3.35129,-34.31322 -1.45089,-41.21877 0.48223,-1.75229 1.59227,-5.87416 2.46656,-9.15972 1.7912,-6.73062 6.36127,-17.21689 9.46063,-21.70803 2.5368,-3.67611 6.83127,-6.46282 8.93194,-5.79608 1.6343,0.5187 3.26463,4.1855 3.26463,7.34255 0,1.04648 -1.15773,6.45895 -2.5726,12.02774 -2.28736,9.0022 -2.57441,11.3617 -2.58869,21.27603 -0.0136,9.27822 0.29793,12.288 1.85282,17.92121 4.90867,17.78379 13.27613,30.10283 28.36419,41.75942 8.67627,6.703 12.579,9.0169 13.01286,7.71528 0.64661,-1.94008 7.99738,-10.21092 12.23305,-13.76438 18.05522,-15.14716 39.9401,-23.29763 65.19055,-24.27853 13.36358,-0.51912 22.819,0.3059 33.24488,2.90075 20.09187,5.00058 38.78101,15.78325 51.52914,29.72957 l 5.89013,6.44379 6.24119,-4.26279 c 18.7016,-12.77349 28.87237,-26.42585 34.09585,-45.76737 1.93494,-7.16474 2.10021,-8.87987 1.80398,-18.7177 -0.24955,-8.28697 -0.85957,-13.07468 -2.59752,-20.38818 -2.74399,-11.54683 -2.96069,-16.30454 -0.84858,-18.63836 0.83238,-0.91978 2.41536,-1.67233 3.51782,-1.67233 4.93687,0 13.47674,13.84819 18.17381,29.47041 2.21135,7.35472 2.27308,8.04655 2.20127,24.69143 -0.0544,12.71629 -0.38357,18.20117 -1.27713,21.30631 -0.82105,2.85276 -0.92414,4.18109 -0.32444,4.17994 1.6113,-0.003 13.55413,-6.4926 18.80015,-10.21558 15.65627,-11.11112 23.34587,-22.96965 28.03896,-43.24084 2.52355,-10.9004 2.38081,-25.84312 -0.36058,-37.74087 -4.8851,-21.20141 -13.48989,-37.64067 -30.97563,-59.177847 -10.10428,-12.445491 -9.10549,-18.021741 2.15199,-12.014407 6.719,3.585439 11.96808,7.659102 19.33051,15.001806 19.14078,19.089388 27.31839,34.763718 35.89451,68.800798 1.53597,6.09595 1.5293,6.09743 5.56434,-1.23939 3.89527,-7.08271 6.9944,-16.3039 8.79794,-26.17748 2.06249,-11.29182 2.07042,-16.83461 0.0419,-29.399106 -1.98489,-12.295794 -5.39475,-23.361674 -10.50824,-34.10165 -4.27486,-8.978591 -4.58502,-11.57135 -1.42472,-11.910945 4.86676,-0.522962 18.04943,13.727508 24.99647,27.021009 7.44683,14.250042 10.34421,26.918582 10.35486,45.276002 0.0113,15.32647 -1.9098,25.18099 -7.66796,39.38289 -1.57834,3.89279 -9.72082,19.55513 -12.65219,24.33691 -13.30785,21.70864 -34.01858,44.05789 -53.26301,57.47713 -11.25997,7.85163 -21.84874,14.05013 -38.23194,22.38059 -32.09508,16.3195 -32.82688,16.88614 -33.92989,26.27067 -0.49446,4.20688 -0.44926,4.33777 1.81861,5.27717 1.27906,0.5298 3.31459,2.47248 4.52329,4.31707 l 2.19775,3.35378 -0.25442,12.74397 c -0.20651,10.34302 -0.51996,13.23219 -1.66386,15.33548 -1.38192,2.54112 -1.37014,2.67431 0.60389,6.8471 1.10732,2.34055 2.01322,4.81181 2.01322,5.49169 0,1.88755 4.37105,9.78249 7.73978,13.97947 1.65401,2.06065 5.39487,6.53924 8.31298,9.95242 6.10831,7.14448 9.74586,12.97511 13.02329,20.87513 2.19005,5.27861 2.3133,6.19043 2.31534,17.1247 8.6e-4,6.35207 -0.11657,15.54492 -0.26179,20.42856 -0.44791,15.0595 2.10328,21.51116 14.68851,37.14681 8.13388,10.1055 12.39402,17.59792 13.81886,24.30397 1.4057,6.61586 1.09135,15.12064 -0.81822,22.13532 -0.9434,3.46515 -1.8765,8.0388 -2.0736,10.16367 -0.35559,3.83329 -0.32115,3.89963 4.42077,8.51099 4.90324,4.76826 11.67673,8.67668 21.34148,12.3145 2.91334,1.09657 5.39045,1.99378 5.50475,1.99378 0.29317,0 6.57389,-8.32526 10.21507,-13.54046 10.08004,-14.43752 18.11842,-28.49267 25.16967,-44.00925 2.66154,-5.857 4.83924,-10.93125 4.83924,-11.27609 0,-0.34485 0.52404,-1.75644 1.16452,-3.13686 7.34794,-15.83739 15.81441,-52.01748 18.01455,-76.9824 1.01555,-11.52414 0.5152,-49.69423 -0.74653,-56.9496 -0.38084,-2.19037 -1.31326,-7.74594 -2.07201,-12.3457 -2.18722,-13.26078 -7.43698,-32.68123 -12.0049,-44.40982 -1.06744,-2.74074 -2.88423,-7.40025 -4.03721,-10.35445 -5.22608,-13.39035 -15.2847,-32.41362 -23.54545,-44.52992 -1.24348,-1.8239 -2.26086,-3.53214 -2.26086,-3.79606 0,-0.95478 11.46999,-13.99448 12.29524,-13.97791 0.99041,0.0199 7.16318,9.13146 14.09436,20.8044 11.38265,19.16965 20.86649,41.39982 27.64599,64.80209 4.50415,15.54799 8.2126,35.43087 9.78721,52.47458 0.98611,10.67347 0.41268,50.46174 -0.83363,57.84036 -0.40702,2.4094 -1.29786,8.24426 -1.9797,12.96636 -0.68194,4.72209 -1.93381,11.53214 -2.78216,15.13346 -0.84825,3.60129 -1.78961,7.80231 -2.09195,9.33556 -2.75057,13.95217 -12.81814,41.61926 -21.82995,59.99229 -32.01261,65.26661 -85.18556,116.57929 -150.59417,145.32557 -18.6564,8.19931 -36.22122,13.34284 -60.53382,17.72631 -11.465,2.0671 -11.21873,1.96517 -19.11586,7.91148 -8.38434,6.31308 -12.91375,9.25032 -20.28196,13.15249 l -6.4008,3.38984 z m -3.86514,-14.58864 c 0,-0.16554 -0.53762,-1.58772 -1.19465,-3.16042 -2.34049,-5.60134 -1.26738,-11.00389 4.47288,-22.51924 1.55964,-3.1286 2.58778,-6.62003 2.87178,-9.75175 0.44666,-4.92646 -0.91588,-16.05683 -2.28046,-18.62858 -0.45821,-0.86355 -0.4547,-1.39387 0.0113,-1.39387 1.14606,0 4.55909,6.25791 6.41043,11.75361 1.99634,5.92591 2.09093,10.95943 0.35989,19.14425 -1.80467,8.53284 -1.74611,16.54854 0.14658,20.07798 l 1.49497,2.78775 0.51712,-4.55515 c 0.28445,-2.50532 1.0466,-5.37272 1.69389,-6.37197 0.64716,-0.99927 2.34638,-5.20928 3.77598,-9.35559 2.42567,-7.03509 2.57464,-8.07274 2.2289,-15.53171 -0.39965,-8.62452 -2.08141,-13.87101 -6.93639,-21.63961 -1.3324,-2.13197 -3.76589,-6.56448 -5.40767,-9.85003 -2.92988,-5.86307 -2.98517,-6.14339 -2.98517,-15.13346 0,-8.2411 0.22804,-9.71887 2.27388,-14.7352 1.25073,-3.06652 2.90848,-6.65076 3.68388,-7.96497 2.64069,-4.47549 5.43124,-12.7324 5.98778,-17.7167 0.57717,-5.16858 -0.83578,-21.08682 -2.08187,-23.45373 -0.42899,-0.81501 -0.40395,-1.53361 0.0635,-1.82254 0.90013,-0.55626 4.57189,6.49552 7.24836,13.9208 1.52022,4.21743 1.85124,6.65385 1.78565,13.14222 -0.0725,7.15063 -0.43308,9.02361 -3.52926,18.31943 -3.1407,9.42975 -3.4503,11.06936 -3.46661,18.35942 l -0.0181,8.00493 6.15396,12.30575 c 3.38471,6.76817 6.39118,13.85137 6.68083,15.74045 0.82004,5.34645 2.04031,2.81284 2.48708,-5.16393 0.34358,-6.13359 -0.33078,-14.35693 -1.89926,-23.16132 -0.60412,-3.39082 0.9494,-3.40906 1.62738,-0.0191 0.28264,1.41323 1.19126,4.01181 2.01923,5.77461 0.82797,1.7628 2.70242,5.89328 4.16555,9.17883 l 2.66017,5.97374 -0.0317,13.54046 c -0.0238,9.95826 -0.37258,14.75208 -1.31825,18.12031 -0.70732,2.51893 -1.03186,4.57987 -0.72125,4.57987 1.35042,0 5.66482,-5.56478 7.71894,-9.95622 1.95669,-4.18307 2.27172,-5.92115 2.52603,-13.9387 0.29295,-9.23762 -0.16856,-12.0739 -3.35571,-20.62497 -0.71763,-1.92512 -1.70124,-6.30465 -2.18597,-9.73227 -1.17438,-8.30423 0.29011,-14.44185 5.2382,-21.95214 4.37252,-6.63661 6.15374,-12.97433 6.78879,-24.1544 l 0.47499,-8.36323 2.31998,7.96498 c 3.00227,10.30727 3.22737,18.87865 0.64547,24.57236 -0.96356,2.12488 -2.14621,6.12734 -2.62799,8.89434 -1.43469,8.23814 -0.017,13.05095 8.37834,28.44549 2.28113,4.18292 3.02572,6.58001 3.38867,10.90944 0.47419,5.65655 -0.79557,14.73163 -2.32067,16.58524 -0.53967,0.65594 -0.54578,0.99561 -0.0181,0.99561 1.65526,0 6.43161,-6.32895 8.059,-10.67839 2.92932,-7.82923 1.84273,-16.28591 -3.38664,-26.35875 -2.26594,-4.36464 -2.48151,-5.43503 -2.48593,-12.34571 0,-6.18525 0.41155,-8.83743 2.27614,-14.52668 2.05445,-6.26884 2.24794,-7.77158 1.94763,-15.13346 -0.31084,-7.6202 -0.55564,-8.63181 -3.61625,-14.94373 -1.80558,-3.72363 -4.77307,-8.74156 -6.5944,-11.15097 -3.80169,-5.0293 -6.44543,-9.95159 -8.86759,-16.51044 -3.16664,-8.57499 -6.48339,-13.39846 -11.30495,-16.44061 -2.58075,-1.62838 -3.40803,-1.31344 -2.24737,0.85548 1.05668,1.97433 4.06791,13.77612 3.5151,13.77612 -0.23698,0 -4.72663,-4.49406 -9.97707,-9.98678 -5.25044,-5.49272 -9.70519,-9.8278 -9.89947,-9.63351 -0.85697,0.85703 2.66957,8.75877 7.43358,16.65568 9.04919,15.00006 11.32307,22.4231 10.35984,33.8183 -0.45607,5.39594 -5.31172,21.61498 -7.62887,25.48232 -0.92369,1.54178 -0.52222,-5.61673 0.81448,-14.51988 2.47009,-16.4515 -1.60778,-28.70705 -14.95517,-44.94728 -2.31557,-2.81732 -5.78569,-8.16596 -7.71157,-11.88583 l -3.50151,-6.76344 -1.20167,2.32786 c -2.34808,4.54838 -5.3533,15.98034 -5.33381,20.29016 0.0113,2.3868 0.75263,6.49017 1.64857,9.11862 1.77589,5.20998 3.18397,16.18896 2.15765,16.82327 -0.35185,0.21749 -0.63981,-0.0285 -0.63981,-0.54686 0,-0.51827 -1.46562,-3.85484 -3.25704,-7.41461 -6.83625,-13.58479 -8.13603,-17.69483 -8.2177,-25.9865 -0.0578,-5.92111 0.2414,-8.14579 1.37817,-10.22936 0.79885,-1.46445 1.30227,-2.81288 1.11864,-2.99653 -0.18363,-0.18362 -2.00778,1.13962 -4.05374,2.94054 -5.30651,4.67099 -7.77965,9.27615 -8.2714,15.40182 -0.39683,4.94403 -0.14896,6.53821 3.1672,20.37146 0.96527,4.02619 1.64722,9.67568 1.68279,13.93871 0.0578,6.96056 -0.0589,7.43418 -4.02497,16.3292 -2.24658,5.0384 -4.64609,10.77319 -5.33223,12.74396 -3.17049,9.10671 -0.3796,22.42131 7.61404,36.32558 7.59738,13.21507 8.20683,16.80996 5.69654,33.60327 -1.73863,11.63094 -0.93038,16.49768 3.49232,21.02687 2.58574,2.64804 4.22842,3.70823 4.22842,2.72903 z m -10.84422,-78.95055 c 0.12937,-8.86437 0.31107,-9.90029 2.50497,-14.27518 2.65088,-5.28605 5.13749,-7.30189 3.15531,-2.55788 -1.06857,2.55727 -4.6352,18.24098 -5.45842,24.00154 -0.1877,1.31423 -0.27855,-1.9116 -0.20186,-7.16848 z m -20.2191,58.1475 c 0,-0.21729 -0.79092,-2.63665 -1.75754,-5.37636 -2.2024,-6.24251 -2.37391,-18.12999 -0.34177,-23.69897 2.08028,-5.70085 2.44312,-13.77751 0.99301,-22.10316 -2.6741,-15.35343 -1.26206,-23.02947 6.62397,-36.00987 8.39148,-13.81251 9.87523,-17.62604 9.92858,-25.51922 0.043,-6.43012 -0.1305,-7.13038 -3.46423,-13.93872 -3.16857,-6.47116 -3.51498,-7.74958 -3.56165,-13.14222 -0.0453,-5.23092 0.23721,-6.45659 2.27025,-9.85694 1.95703,-3.27332 2.07643,-3.75196 0.76023,-3.04755 -2.32372,1.24368 -8.68862,8.28106 -10.29732,11.38541 -2.4865,4.79848 -2.78986,7.89209 -1.80421,18.39983 1.27237,13.56343 0.59133,16.87453 -5.78433,28.12138 -3.71809,6.55875 -5.50883,10.82496 -7.12262,16.96913 -1.93551,7.36882 -2.21067,7.93866 -2.69256,5.57549 -0.29533,-1.4477 -0.71991,-5.32036 -0.94363,-8.60592 -0.42469,-6.23645 0.42038,-11.10903 4.75336,-27.40659 1.1541,-4.34082 1.88057,-8.10428 1.61436,-8.36323 -1.37398,-1.33651 -11.30766,12.66937 -14.42831,20.34282 -3.87691,9.53318 -2.71908,21.49722 3.6755,37.97991 1.88249,4.85207 1.08749,10.68548 -2.50656,18.39365 -3.0648,6.57332 -3.4026,7.92039 -3.66066,14.59791 -0.24514,6.34152 -0.0374,7.87982 1.50788,11.15096 3.07035,6.50099 6.18828,8.95465 5.07485,3.99375 -1.70725,-7.60658 0.71061,-18.99267 5.33313,-25.11522 3.60119,-4.76972 4.67928,-7.69878 4.67928,-12.71317 0,-1.86469 0.33645,-3.39037 0.74765,-3.39037 1.95149,0 1.96927,14.80932 0.026,21.5852 -2.79678,9.75182 3.74188,29.91811 9.77996,30.16293 0.32862,0.0134 0.59744,-0.15357 0.59744,-0.37086 z M 353.5354,624.7326 c -1.74146,-5.11097 -0.68218,-8.03651 5.20942,-14.3865 2.45683,-2.64808 5.35794,-6.59074 6.44692,-8.76148 2.1436,-4.27285 2.28894,-7.47874 1.51501,-33.41721 l -0.30892,-10.35447 2.90587,-5.97374 c 1.59828,-3.28554 4.94481,-8.27243 7.43675,-11.08194 2.49206,-2.80952 4.91184,-6.03534 5.37742,-7.16848 0.46547,-1.13314 1.12907,-8.15348 1.47458,-15.60073 0.43726,-9.42512 1.10539,-15.23502 2.19843,-19.11595 1.47197,-5.22614 1.57494,-5.37585 1.6428,-2.38949 0.0646,2.85846 3.70551,17.79996 4.54923,18.67106 0.18737,0.19338 0.10535,-2.18425 -0.18317,-5.2836 -0.94374,-10.1549 3.9349,-21.89946 12.59124,-30.31148 5.65983,-5.49998 7.31644,-6.70978 13.34818,-9.74787 4.40842,-2.22042 6.1722,-2.63652 12.32661,-2.90804 7.04287,-0.31072 7.24134,-0.37444 10.24701,-3.28965 1.68584,-1.63505 3.65341,-3.95848 4.37263,-5.16318 0.71911,-1.20471 1.59182,-2.19037 1.93959,-2.19037 0.34766,0 1.71303,1.7568 3.03422,3.90401 3.29872,5.36103 4.81351,6.14163 12.8835,6.63905 8.39929,0.51773 14.55054,3.13741 21.61686,9.20615 10.72235,9.20845 17.16778,22.02722 17.28729,34.38085 l 0.043,4.41252 1.91762,-6.37198 c 1.0611,-3.52588 1.93143,-8.48878 1.94854,-11.11114 0.0362,-5.59603 0.87905,-5.09517 2.70026,1.60542 0.92607,3.40708 1.31326,8.10449 1.31326,15.93521 0,6.10719 0.3309,12.25772 0.7353,13.66786 0.40442,1.41014 2.88911,5.52965 5.52175,9.15447 2.63252,3.62481 6.13233,9.42626 7.77739,12.89211 3.96391,8.35121 4.44082,15.38279 1.88736,27.82511 -1.06823,5.20495 -1.62444,10.18373 -1.39935,12.5257 0.51803,5.39167 4.68868,13.43148 9.8716,19.02964 5.70356,6.16053 6.54308,9.13003 4.56656,16.15314 -0.69135,2.45655 1.73286,0.73857 3.56981,-2.52982 2.66708,-4.74541 2.3286,-9.91925 -1.07605,-16.4513 -6.02822,-11.56525 -7.15129,-19.38048 -4.4381,-30.88524 4.16668,-17.66853 2.33879,-27.56611 -7.87322,-42.63105 -2.55776,-3.77336 -5.0982,-8.47357 -5.64533,-10.4449 -0.54715,-1.97133 -1.07153,-8.78139 -1.16544,-15.13346 -0.15338,-10.37758 -0.39195,-12.14796 -2.35204,-17.45122 -2.28963,-6.195 -8.1238,-16.56505 -13.48355,-23.96665 -4.44218,-6.13443 -9.34032,-10.53158 -17.20696,-15.44704 -13.35272,-8.34345 -15.85134,-9.00538 -22.64636,-5.99959 -4.39087,1.94231 -4.26445,2.26423 2.85059,7.25515 2.54632,1.78612 4.45555,3.52929 4.24269,3.87366 -0.21285,0.34438 -2.86588,-0.58025 -5.89569,-2.05474 l -5.50859,-2.68089 -14.59722,-0.17411 c -14.2773,-0.17029 -14.69712,-0.12797 -19.15584,1.93074 -7.76957,3.58736 -9.6276,3.53435 -4.1677,-0.1189 2.64782,-1.77166 5.47291,-3.94909 6.278,-4.83873 1.43459,-1.58519 1.41794,-1.63382 -0.8317,-2.43459 -1.26252,-0.4494 -2.91788,-1.17536 -3.67856,-1.61324 -1.6693,-0.96095 -9.10979,-1.06451 -9.68435,-0.13481 -0.22486,0.36375 -3.38222,2.40154 -7.01637,4.52843 -13.15492,7.69883 -18.41295,12.58502 -25.70255,23.8849 -5.2246,8.09866 -7.10631,11.69504 -9.76478,18.66188 -1.74315,4.56824 -2.06974,7.04588 -2.57872,19.56749 -0.64162,15.78458 -1.26885,18.03483 -6.84689,24.5651 -3.88235,4.54511 -8.05424,13.0368 -9.03628,18.39294 -1.22162,6.6629 -1.05305,15.82383 0.41122,22.35476 0.6876,3.06653 1.43888,7.22585 1.66941,9.24297 0.59393,5.19574 -1.66749,14.29783 -5.44652,21.92233 -3.41043,6.88058 -4.13531,11.8953 -2.24862,15.55729 1.05917,2.056 4.88182,6.37623 5.28498,5.97303 0.14013,-0.14017 -0.33395,-1.98311 -1.05374,-4.09539 z M 501.14327,480.62887 c -2.4225,-5.29158 -6.13912,-10.81577 -10.36663,-15.40879 -1.71371,-1.86181 -2.80132,-3.3828 -2.41695,-3.37997 1.35675,0.0102 8.41787,6.63974 10.37694,9.74314 1.97232,3.12438 5.36633,12.50989 4.74759,13.12865 -0.17797,0.17792 -1.23136,-1.65943 -2.34095,-4.08303 z m -111.23646,2.94053 c -0.0238,-1.84073 3.17945,-9.4842 5.5222,-13.17823 2.22495,-3.50844 8.05379,-8.5562 9.8801,-8.5562 0.46128,0 -0.42673,1.34408 -1.97323,2.98686 -4.10279,4.35793 -7.22979,8.6816 -10.51322,14.53609 -1.59692,2.84747 -2.90905,4.74265 -2.91585,4.21148 z m -61.34263,126.54198 v -11.02312 l -2.02874,-0.92434 c -1.11581,-0.5084 -2.10147,-0.92498 -2.19027,-0.92574 -0.0895,-7.7e-4 -0.051,4.70757 0.0827,10.46296 0.22554,9.63764 0.38277,10.57957 1.99124,11.92237 0.96051,0.80189 1.83594,1.46992 1.94548,1.4845 0.10988,0.0146 0.19903,-4.93392 0.19903,-10.99663 z m 245.29826,6.50117 c 0.75921,-0.69538 -2.04415,-1.82599 -4.55682,-1.83783 -2.43258,-0.0115 -2.58857,0.15682 -2.58857,2.79173 v 2.80393 l 3.38505,-1.70709 c 1.86187,-0.93889 3.55394,-1.86173 3.76034,-2.05074 z M 304.66925,596.02437 V 585.2512 l -2.38943,1.23564 -2.38953,1.23567 v 7.88672 c 0,7.57145 0.0838,7.95269 2.09863,9.53751 1.15433,0.90794 2.22959,1.6508 2.38954,1.6508 0.15995,0 0.29079,-4.84793 0.29079,-10.77317 z m 287.22484,8.30153 1.78315,-1.67515 -2.8021,-3.90034 -2.80212,-3.90033 H 576.9968 565.92046 v 2.38949 2.38949 h 9.50638 9.50628 l 2.24204,3.16899 c 1.23318,1.74293 2.39815,3.17664 2.58892,3.18599 0.19088,0.009 1.14934,-0.73681 2.13001,-1.65814 z M 281.27445,583.21498 c 1.69626,-0.70434 5.4139,-2.34752 8.26132,-3.65148 2.84753,-1.30398 6.61094,-3.022 8.36327,-3.81782 9.58127,-4.35139 9.22817,-4.11231 8.6936,-5.88717 -1.09043,-3.61999 -1.13779,-3.6115 -15.06562,2.7016 -3.01191,1.36522 -4.92907,2.20837 -14.26565,6.27354 l -3.91111,1.70296 1.8596,1.97949 c 2.20025,2.34201 2.12764,2.33364 6.06459,0.69888 z m 337.18652,-0.68039 1.84228,-1.96103 -6.18364,-2.81796 c -3.40102,-1.54988 -6.3044,-2.81797 -6.452,-2.81797 -0.47567,0 -12.57493,-5.58754 -15.73093,-7.26466 -1.68085,-0.89319 -3.15565,-1.50577 -3.27731,-1.36127 -0.684,0.81236 -2.02988,3.86781 -2.02988,4.60815 0,0.47627 0.80645,1.19331 1.7921,1.59342 4.4134,1.79153 24.21382,10.54709 25.28874,11.18248 1.91942,1.13448 2.79508,0.92043 4.75064,-1.16116 z M 571.1607,561.99455 c 2.01152,-7.05885 2.32655,-9.51198 2.32655,-18.12032 0,-8.88685 -0.24728,-10.6834 -2.30276,-16.72645 -2.74943,-8.08386 -9.3811,-21.75166 -12.17346,-25.08968 l -1.99895,-2.3895 0.52845,5.12957 c 0.29057,2.82125 1.72652,8.55602 3.19089,12.74395 1.46437,4.18793 3.91089,11.19865 5.43667,15.57939 2.16354,6.21179 2.89443,9.80581 3.32025,16.3282 0.49957,7.65239 -0.16324,15.66769 -1.59725,19.31507 -0.30144,0.76663 -0.21252,1.39386 0.19744,1.39386 0.41008,0 1.79244,-3.67384 3.07217,-8.16409 z m -247.22901,4.03586 c -0.44485,-1.4531 -0.71287,-7.65993 -0.59552,-13.79295 l 0.2132,-11.15098 5.2194,-15.18474 c 2.87064,-8.3516 5.46204,-17.31219 5.75862,-19.91243 0.29656,-2.60024 0.71332,-5.35495 0.92594,-6.12158 0.70439,-2.53925 -0.8923,-1.4035 -2.26844,1.61354 -0.74414,1.63148 -3.47476,7.44661 -6.06809,12.92254 -8.15495,17.2195 -9.6703,23.83867 -8.17648,35.71448 0.80022,6.36119 4.62616,19.72811 5.41957,18.93464 0.20934,-0.20929 0.017,-1.56944 -0.4282,-3.02252 z m 14.60356,-13.23506 c 2.28985,-10.66325 5.16174,-16.95985 11.04654,-24.21997 6.61286,-8.1582 7.86348,-12.19506 8.1195,-26.20802 0.28524,-15.61628 1.84159,-20.75837 9.36489,-30.94143 1.79346,-2.42755 3.89844,-6.34594 4.67759,-8.70753 1.60427,-4.86205 3.39104,-14.3156 2.81479,-14.89191 -0.20968,-0.20963 -1.83334,2.05007 -3.60833,5.02154 -1.77488,2.97148 -5.34049,7.91166 -7.92352,10.97818 -2.58291,3.06651 -5.65892,7.00277 -6.83546,8.74725 -1.17652,1.74447 -2.13907,2.74778 -2.13907,2.22957 0,-3.60872 2.46702,-10.52111 6.7735,-18.97862 3.72126,-7.30823 5.27184,-11.35313 5.99469,-15.63861 1.06857,-6.33542 0.66745,-17.91053 -0.70234,-20.26842 -0.47657,-0.82034 -0.87736,-1.07913 -0.89073,-0.57507 -0.0136,0.50407 -0.72035,4.98436 -1.5712,9.95622 -1.68821,9.86558 -3.05687,13.38371 -10.33334,26.56271 -7.74226,14.02247 -7.63386,13.48462 -7.63386,37.88109 v 21.15465 l -5.26345,10.30701 c -6.28572,12.30863 -7.44729,16.60264 -6.85767,25.34995 0.51135,7.58442 2.34162,16.34585 2.76439,13.23273 0.14874,-1.09518 1.14016,-6.04128 2.20308,-10.99132 z m 219.75679,6.49561 c 1.58592,-6.17709 1.6181,-17.09582 0.0657,-22.32282 -0.65488,-2.20507 -2.64861,-6.66083 -4.43063,-9.90167 -7.22333,-13.13685 -6.75311,-10.85443 -6.48508,-31.48088 0.30314,-23.32811 -0.0283,-24.88536 -8.9418,-42.00432 -7.03924,-13.51935 -8.4514,-17.46567 -10.09816,-28.21925 -1.16645,-7.61671 -1.89676,-7.21001 -3.14308,1.75023 -1.13461,8.1573 0.40861,17.19499 4.23194,24.78566 1.53936,3.05597 3.88835,7.70686 5.22007,10.33531 1.33172,2.62843 2.64838,6.21267 2.92592,7.96497 0.47794,3.01653 0.43726,3.10127 -0.76384,1.593 -0.69781,-0.87614 -2.2723,-2.66827 -3.4989,-3.98249 -1.95511,-2.09478 -7.7178,-9.77775 -13.5343,-18.04437 l -1.8748,-2.66457 0.46649,4.39794 c 0.69997,6.59775 3.98544,15.37593 8.30256,22.18266 6.95417,10.96429 7.51604,12.7011 8.14985,25.19174 0.522,10.28441 2.09727,19.11516 4.11718,23.07982 0.45165,0.88639 2.75056,4.16064 5.10872,7.27611 7.0669,9.33642 11.51383,21.58917 11.62235,32.02407 0.0543,5.16949 0.89424,4.52558 2.5597,-1.96114 z m -277.63939,-7.47879 c 5.69835,-2.16519 9.17097,-5.07993 11.7993,-9.90362 3.12983,-5.74388 3.51849,-15.04678 1.0662,-25.51432 -2.25474,-9.62405 -1.92419,-14.16079 1.56689,-21.50462 2.27773,-4.79153 4.67124,-7.61934 17.02255,-20.11155 7.90471,-7.99485 14.64603,-14.53609 14.98078,-14.53609 0.87327,0 -3.14342,10.55943 -6.05983,15.93081 -2.67636,4.92916 -4.6658,11.50661 -6.32366,20.9072 -0.98508,5.58545 -1.52396,10.15535 -1.1976,10.15535 0.32636,0 0.83907,-1.16488 1.13927,-2.58862 0.74583,-3.53661 4.03017,-10.95399 12.20314,-27.55944 10.39892,-21.12802 15.86731,-34.96177 19.27569,-48.76285 0.38651,-1.56497 1.23317,-7.12054 1.88148,-12.34571 0.64818,-5.22519 1.42336,-11.11324 1.72253,-13.08457 0.71447,-4.70827 -0.6628,-3.50705 -2.76449,2.41116 -0.85141,2.39748 -2.81332,7.34972 -4.35971,11.00497 -1.5464,3.65525 -3.41439,8.49397 -4.15094,10.75272 -0.73666,2.25874 -1.6036,4.46524 -1.92668,4.90331 -0.32295,0.43808 -1.03572,2.2302 -1.58377,3.98249 -1.56304,4.9973 -2.69155,5.4321 -2.06725,0.7965 1.37963,-10.24328 2.04799,-17.08017 2.05355,-21.0056 0.0113,-3.6349 -0.16664,-4.13579 -1.14108,-3.32705 -1.84013,1.52711 -6.02199,13.33372 -7.63114,21.5449 -0.81562,4.1617 -2.0471,9.42028 -2.73651,11.68574 -1.59398,5.23705 -7.11312,12.59245 -13.81796,18.41521 -16.20897,14.07641 -20.43738,19.02848 -23.73997,27.80276 -2.36586,6.28525 -2.779,16.12545 -0.89639,21.34781 2.00291,5.5561 3.1936,13.88517 2.79056,19.51929 -0.76431,10.68179 -7.3706,17.16779 -21.07754,20.69367 -2.4566,0.63192 -1.82313,0.70625 3.34551,0.39249 3.56018,-0.21612 8.25328,-1.10037 10.62707,-2.00234 z m 343.791,0.91743 c -9.50876,-3.42536 -15.3179,-7.91618 -18.34079,-14.17869 -2.22177,-4.60279 -1.9013,-12.62546 0.83749,-20.96111 3.1936,-9.71972 3.22169,-19.03985 0.0793,-26.26636 -3.92087,-9.01702 -8.32975,-14.27075 -22.8719,-27.2549 -10.70908,-9.56181 -14.0188,-15.46678 -17.52551,-31.26837 -1.54119,-6.94442 -6.63405,-18.7901 -8.3038,-19.3141 -0.56233,-0.17645 -0.50739,2.25936 0.1697,7.5166 1.80659,14.02941 2.12468,18.53035 1.30951,18.53035 -0.42809,0 -1.16531,-1.16487 -1.63826,-2.58861 -0.47295,-1.42373 -2.47178,-6.35206 -4.44196,-10.95184 -1.97006,-4.59977 -4.47922,-10.87219 -5.576,-13.9387 -1.09667,-3.06653 -2.65257,-7.36761 -3.45754,-9.55798 l -1.46359,-3.98249 -0.25692,2.68699 c -0.26111,2.73062 1.60757,18.41113 3.14433,26.38517 1.99464,10.3493 11.28817,33.31623 21.3255,52.70091 5.09944,9.84836 9.91794,21.07472 10.80062,25.16369 0.91066,4.21882 1.82472,2.22548 1.08375,-2.36332 -2.27897,-14.11261 -3.16709,-17.82131 -6.15917,-25.72016 -1.82529,-4.81882 -4.02939,-10.3109 -4.89791,-12.20464 -0.9059,-1.97527 -1.16328,-3.18608 -0.60356,-2.84015 1.24122,0.76708 14.8607,13.66456 20.38494,19.30425 11.3686,11.60623 15.13178,23.7995 11.71388,37.9549 -1.8732,7.75774 -1.538,16.7181 0.81449,21.77144 1.08783,2.33666 2.78681,4.94337 3.77564,5.79268 4.6266,3.97406 13.20873,6.96129 20.11714,7.00238 l 3.98249,0.0237 z M 466.07028,487.17608 c 4.9772,-0.51881 9.04952,-1.17819 9.04952,-1.46529 0,-0.99629 -11.57342,-6.15806 -16.04992,-7.1583 -3.03127,-0.67731 -8.4923,-0.88406 -16.72643,-0.63329 -11.22428,0.34184 -12.63021,0.55389 -17.16177,2.5884 -2.71477,1.21883 -5.52004,2.86136 -6.23383,3.65006 -1.22908,1.35817 -1.07332,1.47761 2.94485,2.25865 2.33334,0.45355 4.9593,0.98071 5.83541,1.17147 3.48463,0.75864 29.82823,0.47579 38.34217,-0.4117 z m -72.74115,-42.23567 c 2.71069,-2.61016 7.52715,-6.51845 10.7032,-8.68508 5.73244,-3.9105 5.77458,-3.96559 5.77458,-7.53102 0,-1.97544 0.68784,-4.9399 1.5285,-6.58771 1.63803,-3.21087 7.68075,-9.68449 9.03978,-9.68449 0.54466,0 0.66009,2.87303 0.34131,8.50176 -0.40248,7.10818 -0.26349,8.87075 0.84825,10.75272 1.56191,2.64415 4.50664,3.00959 5.7363,0.7119 1.44761,-2.70489 3.7668,-2.76351 7.8253,-0.19781 7.98004,5.04473 16.88366,4.6752 24.33752,-1.0101 3.39853,-2.5922 4.07164,-2.55355 6.22386,0.35747 2.19469,2.96844 4.04649,3.03561 5.89534,0.21387 1.30895,-1.99761 1.34656,-2.88585 0.46038,-10.85593 -0.53095,-4.77417 -0.79976,-8.8458 -0.59745,-9.04807 0.92947,-0.92948 3.54636,0.98047 6.46152,4.716 4.49101,5.75473 5.04767,6.98039 5.32758,11.72885 l 0.24786,4.2066 5.30753,3.56163 c 5.11926,3.43529 12.36593,10.41527 16.77922,16.1617 1.16724,1.5199 2.36734,2.51843 2.66674,2.21898 0.29951,-0.29947 1.3563,-5.30647 2.34864,-11.12668 0.99222,-5.82021 2.08006,-11.65747 2.41741,-12.97169 0.5766,-2.24601 0.52573,-2.31775 -0.84621,-1.19476 -0.80282,0.65712 -2.51947,2.62845 -3.81461,4.38074 l -2.35498,3.186 0.39002,-5.19276 c 0.51871,-6.90635 3.33894,-12.30512 9.45043,-18.09102 6.41473,-6.07311 8.94496,-9.86467 10.98039,-16.45485 2.83734,-9.18606 2.91255,-12.6505 0.46014,-21.19344 -2.826,-9.84424 -5.13489,-14.31074 -9.19361,-17.78483 -4.2043,-3.59878 -9.11535,-4.74731 -15.73829,-3.68072 -2.65915,0.42825 -5.65916,1.10938 -6.66655,1.51363 -1.59703,0.64082 -1.42349,0.74672 1.35426,0.82658 7.53418,0.21656 17.91304,6.49237 21.11424,12.76715 2.21894,4.3495 2.01718,4.80645 -1.51014,3.42089 l -3.09596,-1.21615 -4.92533,3.27147 c -2.70887,1.79931 -5.05412,3.27147 -5.21158,3.27147 -0.15746,0 0.0419,-1.14511 0.4435,-2.54469 0.45958,-1.60265 0.43103,-3.65425 -0.077,-5.54186 -1.07673,-3.99881 -2.35681,-4.65754 -2.35681,-1.21286 0,5.16797 -8.48618,10.73256 -12.8963,8.4564 -3.64129,-1.87932 -5.42308,-4.13408 -5.42308,-6.86256 0,-2.10209 -0.32307,-2.64891 -1.56497,-2.64891 -2.06895,0 -3.44361,2.71707 -2.81728,5.56858 0.27651,1.25904 1.89564,3.8716 3.59813,5.80569 2.39282,2.71842 4.14368,3.83082 7.71428,4.90137 8.94055,2.68051 8.9469,2.71186 0.5552,2.77743 -9.51172,0.0743 -11.29702,-0.78095 -16.83292,-8.06434 -3.56415,-4.68923 -6.0877,-6.22657 -7.65244,-4.66186 -0.54398,0.54397 -1.12691,5.61843 -1.45033,12.62395 -0.55881,12.10667 -1.99499,20.54025 -4.43459,26.04053 l -1.40831,3.17521 -0.51859,-4.36996 c -0.28525,-2.40347 -0.55406,-13.29648 -0.59733,-24.20668 l -0.0793,-19.83672 -2.85829,-8.83719 c -2.94043,-9.0909 -3.069,-11.2116 -0.98872,-16.30967 l 1.0952,-2.68417 2.28566,4.28182 c 1.25718,2.35501 3.01405,5.08828 3.90421,6.07394 2.45241,2.71538 6.90898,2.37797 13.99501,-1.05957 10.39734,-5.04392 21.9251,-8.44826 30.095,-8.88753 6.85359,-0.3685 7.58538,-0.25174 11.8445,1.88987 2.49671,1.25544 5.93432,3.86132 7.63895,5.79084 1.70476,1.92952 3.27495,3.33286 3.48928,3.11853 0.21432,-0.21432 -0.3224,-3.17391 -1.19274,-6.57685 -1.7418,-6.81008 -5.57578,-14.21827 -8.2731,-15.98567 -0.95428,-0.62521 -7.10246,-1.95495 -13.66287,-2.95496 -11.40655,-1.73872 -13.98232,-1.81789 -58.92138,-1.81099 -44.83585,0.007 -47.50134,0.0891 -58.05806,1.79211 -6.08554,0.9817 -11.35252,1.78492 -11.70448,1.78492 -1.17835,0 -7.04559,8.92305 -8.57908,13.04726 -0.83385,2.24259 -1.78314,5.68052 -2.10939,7.63985 l -0.59337,3.56241 3.88327,-3.84102 c 5.97135,-5.90625 10.07935,-7.66454 17.90726,-7.66454 4.83946,0 8.16775,0.53399 12.9696,2.08079 9.25841,2.98244 16.32292,5.78794 20.06978,7.97027 2.13591,1.24403 4.50506,1.8964 6.88689,1.8964 3.11137,0 3.96153,-0.37654 5.94168,-2.63185 1.27101,-1.44753 2.78522,-3.77729 3.36511,-5.17724 0.57988,-1.39996 1.34351,-2.54538 1.69694,-2.54538 1.00933,0 1.79527,8.3567 1.17495,12.4931 -0.30858,2.05776 -1.20304,5.37537 -1.98763,7.37248 -1.20711,3.0725 -1.49597,7.12327 -1.87751,26.33129 -0.24796,12.4851 -0.77234,24.13388 -1.1652,25.88617 l -0.71423,3.18599 -0.9707,-2.37336 c -2.26901,-5.54769 -4.06054,-16.12635 -4.5515,-26.87526 -0.28558,-6.25501 -0.84144,-12 -1.23521,-12.76663 -1.28732,-2.50673 -3.37666,-1.46068 -7.82825,3.91934 -5.81707,7.03026 -8.81741,8.36574 -18.10663,8.05934 l -6.98307,-0.23033 4.48625,-1.03266 c 5.79237,-1.33333 10.95083,-3.99381 12.87852,-6.64221 2.09319,-2.87571 2.7185,-8.7825 1.07423,-10.1471 -1.46947,-1.21963 -3.20266,-0.42471 -2.58472,1.18551 0.78266,2.03945 -1.31269,5.03888 -4.64789,6.6534 -2.69902,1.30658 -3.80023,1.44706 -6.18398,0.7889 -4.00085,-1.10469 -8.06705,-5.819 -7.62378,-8.83901 0.46014,-3.13529 -0.52811,-2.85331 -2.1768,0.62113 -0.90013,1.89688 -1.23295,3.96137 -0.96312,5.97372 0.22691,1.6913 0.28582,3.07509 0.13107,3.07509 -0.15474,0 -1.28551,-0.93214 -2.51278,-2.07142 -4.21392,-3.91177 -5.78875,-4.33452 -10.36981,-2.7837 l -4.09146,1.3851 1.7342,-3.21116 c 3.07534,-5.69467 9.18116,-11.03435 14.91112,-13.0402 2.82838,-0.9901 6.39695,-1.80746 7.9302,-1.81635 3.95937,-0.0229 1.62727,-1.19553 -4.63681,-2.33143 -9.57038,-1.73542 -16.18698,0.9865 -20.56731,8.46095 -2.59141,4.4219 -6.62793,17.92815 -6.62827,22.17844 -2.3e-4,3.0886 2.1,12.15606 3.8086,16.44304 0.46162,1.15834 4.05035,5.4648 7.97484,9.56988 8.58689,8.98211 10.53825,12.43311 11.08925,19.61219 l 0.41065,5.35074 -3.38879,-4.2178 c -1.86381,-2.31979 -3.51714,-4.08941 -3.67403,-3.93252 -0.32591,0.3259 4.16385,23.57398 4.94662,25.61386 0.42254,1.10132 0.78956,0.88834 2.05513,-1.19271 0.84735,-1.3934 3.75854,-4.66904 6.46923,-7.27921 z m -78.72654,-9.78812 c 1.98841,-14.92753 6.72863,-27.95667 12.93516,-35.55376 1.65967,-2.03161 5.21611,-5.50454 7.90301,-7.71761 10.61098,-8.73983 15.14549,-17.29938 19.06069,-35.98015 1.20983,-5.77218 1.39777,-15.47629 0.34721,-17.9212 -0.644,-1.49854 -0.68784,-1.50372 -0.74052,-0.0874 -0.13288,3.57224 -5.76088,19.26078 -9.62385,26.82715 -6.06493,11.87929 -13.16162,19.46494 -9.48578,10.13938 0.89764,-2.27729 1.85067,-4.49426 2.11779,-4.9266 1.71143,-2.76911 6.70676,-22.79276 5.68611,-22.79276 -0.3838,0 -0.6977,0.3781 -0.6977,0.8402 0,3.73237 -7.3161,15.10565 -18.19069,28.2785 -11.56174,14.00517 -13.90915,19.21548 -14.93649,33.15278 -0.45051,6.11238 1.20904,29.64747 2.56954,36.43896 0.78402,3.91377 1.39358,1.7797 3.05552,-10.69744 z m 267.5095,-1.39387 c 2.33336,-24.68081 1.74305,-33.68492 -2.77934,-42.39606 -2.29268,-4.41621 -4.48251,-7.43452 -12.88735,-17.7632 -4.00299,-4.91925 -10.90064,-15.38297 -13.72461,-20.82032 -4.64393,-8.94161 -2.92354,-0.59992 3.33645,16.17657 1.94356,5.20871 3.3471,9.65695 3.11918,9.88495 -1.20531,1.20529 -9.15431,-10.62204 -13.8507,-20.60855 -2.31364,-4.91978 -6.48326,-17.37141 -6.49833,-19.40602 -0.0113,-1.35245 -0.14863,-1.4316 -0.78436,-0.44797 -1.95385,3.02356 -0.30585,18.78764 3.13957,30.03161 2.65338,8.65889 6.71856,15.08622 14.31039,22.62594 16.08096,15.97057 19.60002,22.89278 22.02252,43.32042 1.34837,11.36958 1.84058,13.93871 2.67024,13.93871 0.30371,0 1.17054,-6.54123 1.92634,-14.53608 z M 361.31448,318.54623 c 16.81139,-2.69224 18.57822,-2.87456 43.31529,-4.46953 23.54795,-1.51829 61.78091,-1.50919 85.62351,0.0204 21.50302,1.37949 28.45754,2.12612 44.88433,4.81872 6.50638,1.06648 12.24121,1.92039 12.74395,1.89757 0.95802,-0.0435 -5.56162,-2.65651 -15.01567,-6.01825 -3.0665,-1.09042 -10.41421,-3.18988 -16.32825,-4.66547 -5.91404,-1.47561 -11.46954,-2.86911 -12.34565,-3.09669 -0.87622,-0.22759 7.54675,-0.29171 18.71768,-0.14252 11.17082,0.14919 21.29628,0.52662 22.50102,0.83872 3.41484,0.88466 2.56693,-0.65844 -1.19771,-2.17967 -5.70346,-2.30469 -19.77222,-5.26747 -35.84773,-7.54931 -14.89174,-2.11379 -16.34728,-2.17503 -51.56494,-2.16959 -31.21682,0.004 -38.83539,0.25012 -54.95838,1.7696 -29.78529,2.80706 -50.39701,5.73218 -53.94303,7.65536 -2.05321,1.11354 -1.33422,1.20567 10.13577,1.29864 12.50096,0.10127 28.47656,1.66176 26.28436,2.56738 -0.65714,0.27147 -4.59976,1.20192 -8.76146,2.06765 -13.84457,2.88005 -30.26696,8.22867 -30.26696,9.85771 0,0.38414 0.31107,0.50621 0.69124,0.27124 0.38028,-0.23497 7.27986,-1.48235 15.33263,-2.77195 z m 50.88198,-32.64629 c 14.34957,-1.18738 61.37876,-1.15586 75.04809,0.0503 6.01145,0.53045 11.18769,0.70666 11.50285,0.39157 0.83317,-0.83321 -1.15456,-5.87882 -4.1992,-10.65888 -1.45452,-2.28378 -2.34967,-4.33465 -1.98909,-4.5575 0.94068,-0.5814 11.87145,10.70478 13.92591,14.37876 1.23384,2.20637 2.34117,3.16376 3.86423,3.34113 l 2.13487,0.2486 -1.62478,-4.81137 c -3.40646,-10.0871 -7.80502,-16.09186 -18.90017,-25.80198 -2.34728,-2.05425 -3.96017,-3.73326 -3.58419,-3.73112 1.10742,0.007 11.30902,5.40673 14.89808,7.88663 1.81963,1.25725 5.72769,4.50825 8.68476,7.22447 2.95696,2.71621 5.3763,4.71334 5.3763,4.43803 0,-1.07818 -3.5228,-7.37173 -5.81764,-10.39331 -9.82085,-12.93069 -22.82182,-20.72503 -42.76871,-25.64048 -7.34204,-1.80929 -10.11379,-2.06962 -22.70016,-2.13208 -12.40478,-0.0615 -15.39312,0.17908 -22.17386,1.78569 -22.26744,5.27597 -38.4704,15.06865 -44.62232,26.96878 -1.72289,3.33285 -2.65371,9.77081 -1.41261,9.77081 0.49764,0 0.90477,-0.2996 0.90477,-0.66577 0,-0.36619 1.30386,-2.3394 2.89749,-4.3849 4.79867,-6.15931 13.73084,-11.80648 22.88265,-14.46695 5.44483,-1.58287 6.66384,-1.11791 2.361,0.90057 -1.67825,0.78732 -6.52371,4.85551 -10.76765,9.04041 -6.29274,6.20531 -8.23255,8.70872 -10.51582,13.5709 -1.53983,3.27908 -3.01531,6.8699 -3.27869,7.97958 l -0.47894,2.01761 9.8,-0.92987 c 5.39011,-0.51144 14.63879,-1.33028 20.55283,-1.81964 z M 247.82464,520.21701 c -0.27674,-0.27676 -0.50319,-3.47469 -0.50319,-7.10651 0,-6.54734 -0.0419,-6.68289 -4.92113,-15.99633 -2.70649,-5.16616 -6.53923,-12.70523 -8.517,-16.75348 -3.41178,-6.98363 -3.78175,-7.42809 -7.22547,-8.68131 -9.34656,-3.40133 -10.08231,-3.88999 -11.37054,-7.55274 -1.92112,-5.46189 -7.47311,-22.14604 -8.96966,-26.95457 -2.7884,-8.9592 -7.50687,-32.15108 -7.5575,-37.14602 -0.0181,-1.74344 1.10799,-3.96885 3.82752,-7.56674 6.08202,-8.04623 5.80087,-6.57732 5.20466,-27.18378 l -0.53649,-18.54074 -3.49878,-2.17836 c -6.19203,-3.85507 -8.2296,-11.52241 -4.92849,-18.54536 1.98694,-4.22708 4.64054,-6.31383 9.62488,-7.56889 l 3.63199,-0.91453 1.73512,-6.10224 c 3.42447,-12.04342 5.75963,-19.74073 7.77126,-25.61644 2.43893,-7.12363 11.4103,-25.82418 16.51257,-34.42001 l 3.64706,-6.14436 2.785,1.64317 c 1.53178,0.90374 2.785,2.17047 2.785,2.81497 0,0.64449 -1.64641,3.88398 -3.65873,7.19888 -7.52409,12.39469 -14.26813,27.41111 -18.88511,42.04957 -6.27709,19.90179 -6.19134,18.83019 -1.87445,23.4453 7.55049,8.07214 5.35885,19.09924 -4.77069,24.00285 l -3.70303,1.79259 0.43998,18.93313 0.43987,18.93312 -3.41496,4.69318 c -6.02165,8.27547 -6.30394,9.14422 -5.21769,16.05707 2.41673,15.38051 12.91782,52.89102 15.34554,54.81493 0.55338,0.43853 2.79814,1.40009 4.98854,2.1368 8.24183,2.7721 9.20868,3.57932 11.52685,9.62402 1.17596,3.06652 5.06001,11.31027 8.63129,18.31944 6.35697,12.47689 6.504,12.89601 7.01286,19.99918 0.39286,5.48284 0.27142,7.40874 -0.49708,7.88367 -1.36344,0.84264 -5.23163,1.25886 -5.86,0.63054 z M 217.48892,337.21928 c 2.48436,-2.48428 2.55108,-6.05506 0.16301,-8.70969 -1.64789,-1.83175 -3.52109,-2.3981 -7.1685,-2.16739 -2.40098,0.15186 -4.57982,3.0531 -4.57982,6.0981 0,6.04516 7.30557,9.05875 11.58531,4.77898 z m 423.47013,182.82915 c -1.44094,-0.25706 -2.61226,-0.74048 -2.60274,-1.07428 0.0113,-0.33378 2.11789,-3.7388 4.68539,-7.56672 15.43186,-23.00755 25.8693,-43.97029 33.82896,-67.94286 4.41817,-13.30653 7.07425,-24.45389 9.85665,-41.36693 2.05978,-12.51978 2.16422,-14.50024 2.20716,-41.81613 0.0317,-20.2105 -0.22475,-29.13039 -0.86864,-30.22049 -0.94249,-1.59543 -11.61623,-10.04422 -12.10459,-9.58137 -0.15088,0.14295 0.14455,3.48245 0.65647,7.4211 2.21508,17.04309 2.29551,46.16088 0.18577,67.30826 l -0.56798,5.69389 -7.49113,4.9309 c -4.12012,2.712 -8.03442,5.47426 -8.69858,6.13836 -0.66405,0.6641 -1.81895,3.46313 -2.56637,6.22006 -0.74743,2.75694 -2.50633,7.88 -3.90863,11.38458 -3.68253,9.20295 -3.65727,9.00581 -1.46223,11.39611 4.48682,4.88603 4.55977,11.22077 0.17672,15.33844 -1.77182,1.66455 -2.83631,1.93938 -7.51151,1.93938 -4.65164,0 -5.7439,-0.27883 -7.47946,-1.90924 -5.86669,-5.51149 -4.10959,-14.86671 3.35298,-17.85267 2.94156,-1.17699 3.19316,-1.57774 5.93273,-9.4513 1.57347,-4.5222 3.62214,-11.08958 4.55263,-14.59417 l 1.69196,-6.37198 7.53167,-5.10517 c 4.14245,-2.80784 7.85148,-5.49602 8.24218,-5.97373 2.69892,-3.2997 3.07976,-50.80263 0.54341,-67.77436 -4.58797,-30.69999 -10.33764,-49.47884 -21.33729,-69.68886 l -4.54923,-8.35853 2.10294,-2.19507 c 1.15671,-1.20729 2.55221,-2.19506 3.10128,-2.19506 2.12163,0 12.35902,20.52911 17.46513,35.023 2.651,7.52459 7.5156,26.21615 7.52047,28.89594 8.7e-4,0.81899 0.6039,1.39387 1.46064,1.39387 1.57483,0 14.95789,8.60768 17.15112,11.0311 1.33898,1.47962 2.05275,5.36435 3.75389,20.43056 1.52804,13.53409 0.53604,44.44742 -1.94129,60.49456 -1.1464,7.42564 -2.4233,14.59412 -2.83756,15.92995 -0.41427,1.33581 -1.15603,4.46795 -1.64846,6.9603 -1.57336,7.96395 -9.92496,32.32386 -14.28456,41.66533 -8.33348,17.85615 -11.93874,24.39846 -20.4102,37.03713 -9.14649,13.64575 -10.43188,14.99441 -13.7297,14.4061 z m 6.54557,-69.81957 c 2.37719,-2.37714 0.91406,-5.12035 -2.73085,-5.12035 -2.3491,0 -3.98249,1.3067 -3.98249,3.18599 0,3.04303 4.35098,4.2967 6.71334,1.93436 z M 259.48064,466.304 c -2.00246,-2.54572 -6.77043,-12.25107 -9.59463,-19.53 -2.27411,-5.86111 -2.31557,-5.90783 -6.09268,-6.86688 -7.12149,-1.80822 -10.66978,-7.74853 -9.23043,-15.45305 0.7618,-4.07767 4.31111,-7.76746 8.25203,-8.57853 2.1487,-0.44223 2.2391,-0.63204 1.78179,-3.73678 -3.56584,-24.20888 -3.56653,-61.98968 -8.7e-4,-79.73467 3.66655,-18.24902 5.97521,-26.64435 10.3015,-37.46182 3.82957,-9.5754 9.24562,-20.11414 11.93863,-23.23051 2.04302,-2.36416 2.71647,-2.68269 4.64416,-2.19645 2.62018,0.66088 3.56086,2.4225 2.2723,4.25534 -2.30729,3.28179 -8.6475,15.31036 -10.73423,20.3649 -12.91704,31.28853 -16.92717,65.08716 -12.57153,105.95888 l 1.69637,15.91798 2.71919,2.79971 c 5.09524,5.24611 5.78082,10.62044 2.01752,15.81552 -1.31416,1.81423 -2.38942,3.48864 -2.38942,3.7209 0,1.56169 6.31459,16.10523 8.96173,20.64028 l 3.22034,5.5171 -2.30764,1.84655 c -2.86487,2.29235 -3.04384,2.29058 -4.88375,-0.0485 z m -9.42833,-35.19109 c 1.63123,-1.6313 1.59849,-5.00992 -0.0668,-6.84974 -1.49644,-1.65348 -5.83315,-1.95164 -7.28406,-0.50079 -1.49824,1.49828 -1.19885,6.7884 0.43818,7.74187 2.0873,1.21578 5.4984,1.02266 6.91237,-0.39134 z m 362.89711,11.79506 -1.73386,-1.40405 1.66669,-3.97231 c 0.91666,-2.18477 2.18574,-5.04758 2.82012,-6.36181 3.37077,-6.98319 8.65111,-23.1744 11.4292,-35.04589 3.02164,-12.91192 4.27045,-25.88618 2.49172,-25.88618 -1.91716,0 -7.39778,-4.51739 -9.1892,-7.57418 -3.96629,-6.76796 -1.69955,-16.27053 4.84614,-20.31597 1.89654,-1.17213 2.69132,-2.17467 2.42307,-3.05618 -0.21965,-0.72151 -1.12453,-6.08922 -2.01073,-11.92825 -0.8863,-5.83903 -1.76842,-10.87054 -1.96032,-11.18109 -0.19201,-0.31057 0.84892,-2.80677 2.31307,-5.54712 l 2.6621,-4.98247 -2.373,-6.53663 c -2.56139,-7.05567 -9.11433,-20.91256 -11.81097,-24.97555 l -1.6651,-2.50895 2.1649,-1.70295 c 1.1908,-0.93663 2.71919,-1.59624 3.39649,-1.46578 2.56999,0.49492 12.35188,19.94701 15.97107,31.75969 l 1.60972,5.25359 -1.98536,4.88592 c -2.34762,5.77733 -2.385,6.88011 -0.6696,19.74286 1.28744,9.65424 1.35858,9.86615 3.31504,9.86615 2.77685,0 8.12097,3.30402 10.50269,6.49327 1.71949,2.30257 1.99125,3.50087 1.99125,8.7809 0,7.20624 -1.05816,9.13119 -7.30524,13.2899 l -4.0227,2.67789 -0.52189,6.48183 c -1.44851,17.9911 -13.86632,59.2789 -19.53329,64.94582 -2.03372,2.03372 -2.60193,2.06525 -4.82201,0.26754 z m 25.83249,-82.54048 c 1.95125,-1.56116 2.37141,-2.4883 2.37141,-5.23243 0,-2.60485 -0.43206,-3.67144 -1.97312,-4.8713 -4.25957,-3.31629 -8.00814,-2.72742 -11.35841,1.7843 -1.94344,2.61722 -1.38689,5.56207 1.56883,8.30134 2.68067,2.48438 6.30008,2.49136 9.39129,0.0181 z m -361.43683,43.52227 c -1.78631,-4.1625 -4.53574,-22.78209 -4.53574,-30.71633 0,-6.79166 0.67016,-8.51118 3.3173,-8.51118 2.12356,0 2.79078,2.05804 3.35708,10.35447 0.2841,4.1617 1.45542,12.47032 2.60284,18.4636 1.14753,5.9933 1.8706,11.45926 1.60688,12.1466 -0.28206,0.73491 -1.42439,1.24971 -2.7731,1.24971 -1.89145,0 -2.51823,-0.52365 -3.57526,-2.98687 z m 0.64151,-54.4918 c -7.62298,-4.20573 -8.96003,-12.48901 -3.06865,-19.01011 1.75324,-1.9406 3.79841,-3.30041 5.42183,-3.60499 2.55368,-0.47907 2.7005,-0.74326 7.20227,-12.96561 6.85664,-18.61569 12.88701,-29.60127 16.24928,-29.60127 0.75354,0 2.06568,0.5174 2.91607,1.14979 1.72153,1.28018 1.64778,1.47672 -3.09052,8.23888 -2.57883,3.68039 -5.72134,11.03381 -10.21937,23.91297 l -3.14613,9.00844 2.41842,2.7545 c 2.87539,3.27489 3.58725,5.66765 2.99649,10.07204 -0.83091,6.19534 -6.2695,10.98911 -12.42109,10.94847 -2.01605,-0.0134 -4.38248,-0.41972 -5.2586,-0.90311 z m 9.59419,-7.3997 c 3.42639,-3.42637 2.18563,-8.08971 -2.53409,-9.52485 -1.19375,-0.36296 -2.44165,0.10547 -4.18164,1.56959 -1.95544,1.64543 -2.48016,2.71229 -2.48016,5.04282 0,1.62575 0.43001,3.386 0.95575,3.91169 1.67247,1.67249 6.10604,1.13487 8.24014,-0.99925 z m 316.06413,0.98176 c -0.3309,-0.5353 -1.22389,-4.02993 -1.98456,-7.76584 -4.11379,-20.20419 -8.61431,-32.42222 -15.92125,-43.22334 -1.70068,-2.51396 -3.09209,-5.06905 -3.09209,-5.67797 0,-1.31606 4.27905,-3.25566 5.85139,-2.65231 1.20167,0.46116 7.20056,10.53342 10.05545,16.88362 2.21588,4.92879 6.11454,17.47904 9.5799,30.839 2.15981,8.32654 2.44743,10.34727 1.61516,11.3501 -1.2095,1.45725 -5.25486,1.62079 -6.104,0.24674 z m -253.8813,-106.80706 -2.29721,-1.83825 5.48322,-4.55915 c 6.71357,-5.58216 16.46147,-12.05567 23.47954,-15.59269 4.19398,-2.11372 5.44641,-3.18402 6.21581,-5.31177 1.89791,-5.24834 9.27903,-8.15711 14.21807,-5.60304 4.17483,2.15889 5.77548,4.92747 5.77548,9.98981 0,5.03191 -1.22297,7.39066 -4.78779,9.23409 -4.14607,2.14401 -8.4479,1.53528 -14.03218,-1.98565 -1.50141,-0.94663 -2.27569,-0.76846 -6.77031,1.55798 -6.70157,3.46887 -15.33965,9.0506 -19.9206,12.8724 -2.03215,1.69533 -4.00357,3.08065 -4.38079,3.07848 -0.37734,-0.003 -1.71971,-0.83118 -2.98324,-1.84221 z m 44.44651,-20.14276 c 2.60227,-0.99857 0.5605,-7.4815 -2.35624,-7.4815 -1.12567,0 -3.55236,3.40862 -3.55236,4.98991 0,2.40267 2.92546,3.63631 5.9086,2.49159 z m 146.71579,21.34618 c -0.72216,-1.16849 -13.50847,-9.49636 -20.29487,-13.21836 -11.98576,-6.57349 -28.67515,-13.17622 -39.34391,-15.56538 -16.53566,-3.703 -36.26199,-4.90712 -51.31209,-3.13216 -7.16681,0.84523 -7.67,0.80687 -9.17629,-0.69946 -2.03475,-2.03479 -0.87702,-4.64266 2.34298,-5.27741 6.87759,-1.35579 22.40982,-2.24872 31.06604,-1.78596 l 9.76104,0.52181 v -16.18151 c 0,-11.52363 0.27516,-16.45666 0.95574,-17.13732 1.27203,-1.27202 4.20894,-1.21581 5.3021,0.1015 0.56085,0.6757 0.95529,7.06221 1.09316,17.69701 l 0.21568,16.63977 5.57556,0.92748 c 21.83458,3.63213 37.32048,10.42951 61.31521,26.91375 7.49747,5.15069 7.78452,5.43105 7.1523,6.98377 -0.62088,1.52478 -4.17789,3.98076 -4.65265,3.2125 z m 8.66641,-32.82931 c -4.38078,-2.6196 -13.52059,-7.49521 -20.31074,-10.83469 -6.79014,-3.33949 -12.97288,-6.62018 -13.73956,-7.2904 -1.95024,-1.70504 -1.73557,-3.8971 0.52687,-5.37951 1.83594,-1.20294 2.30208,-1.06869 10.55366,3.0391 15.32934,7.63132 29.54299,16.17337 32.16113,19.328 0.91224,1.09923 0.3446,5.9522 -0.69227,5.91802 -0.29384,-0.0102 -4.11842,-2.16092 -8.49909,-4.78052 z m -218.27474,0.65922 c -0.68524,-3.11968 -0.10988,-3.63041 13.1394,-11.67001 18.67792,-11.3335 37.38743,-18.52937 58.57972,-22.53039 8.75761,-1.65338 9.83547,-2.05379 12.87161,-4.78151 8.26789,-7.42804 18.59636,-3.30199 18.58707,7.42518 -0.0113,11.20966 -15.03085,15.12525 -20.58307,5.36543 -1.69546,-2.98035 -4.21596,-3.02669 -15.33682,-0.28186 -10.25155,2.5303 -18.63849,5.47784 -29.0638,10.21436 -10.25405,4.65869 -29.32889,14.447 -32.95478,16.91086 -3.68241,2.50228 -4.57075,2.3917 -5.23933,-0.65206 z m 95.26821,-28.54552 c 2.92978,-1.568 1.07232,-7.93695 -2.31488,-7.93695 -1.4339,0 -4.90595,3.07312 -4.90595,4.34234 0,0.48328 0.5579,1.67529 1.23985,2.64891 1.33863,1.91117 3.5296,2.2576 5.98098,0.9457 z m -161.21037,1.09002 c -0.29204,-0.29205 -0.53106,-4.90322 -0.53106,-10.24706 0,-8.67816 0.17955,-9.94423 1.68029,-11.85213 5.67512,-7.21477 22.9368,-20.6314 38.77886,-30.14083 25.67309,-15.41071 55.50676,-27.136332 84.59096,-33.247209 3.72364,-0.782368 8.38321,-1.796014 10.35451,-2.252547 1.97132,-0.456531 9.49823,-1.46716 16.72644,-2.245841 22.87654,-2.46444 54.96052,-1.657133 73.67604,1.853859 3.50456,0.657453 8.89694,1.668573 11.98304,2.246933 12.38496,2.321064 35.32029,9.381595 49.74554,15.313905 15.58695,6.41005 39.77777,19.83949 52.43142,29.10712 9.36921,6.86209 19.88141,16.69869 22.21204,20.78462 1.2419,2.17717 1.38837,20.09437 0.17049,20.84707 -0.46943,0.29008 -2.53035,-0.95347 -4.57993,-2.76343 -23.60947,-20.84951 -38.4653,-31.19776 -61.16149,-42.60382 -12.15489,-6.1085 -12.60326,-6.30986 -22.21477,-9.97694 -13.41456,-5.1181 -25.57749,-8.80869 -37.83364,-11.47986 -13.05195,-2.84461 -12.56054,-2.76536 -27.87743,-4.49591 -36.11529,-4.08043 -70.71206,-0.16574 -108.72185,12.30211 -10.46225,3.43176 -15.99929,5.78121 -31.06344,13.18058 -21.98253,10.79761 -39.18814,22.57544 -64.83179,44.37961 -2.25778,1.91975 -2.73141,2.0926 -3.53423,1.28977 z m 287.56762,-9.54572 c -2.97598,-1.9704 -8.83678,-5.34792 -13.02396,-7.50562 -7.33333,-3.77891 -7.8577,-3.92309 -14.26519,-3.92309 h -6.65206 l -1.32662,2.79567 c -1.41001,2.97137 -5.92446,6.97635 -8.91359,7.90758 -0.99121,0.30882 -3.78346,0.56149 -6.20483,0.56149 -5.82091,0 -10.54584,-2.7143 -13.49998,-7.75522 -1.86868,-3.18859 -2.11913,-4.35793 -1.8374,-8.57876 0.39874,-5.975 2.6332,-9.69699 7.77409,-12.94941 4.71836,-2.98502 11.74368,-3.15814 16.20738,-0.39937 3.75423,2.32024 6.66283,5.83128 7.32382,8.84098 l 0.52901,2.40857 h 6.98284 c 4.83832,0 7.81544,0.40111 9.69375,1.30606 4.03358,1.94321 22.70345,13.67887 23.7309,14.91693 0.88269,1.06355 0.36862,6.13789 -0.60956,6.01783 -0.2738,-0.0336 -2.93272,-1.67325 -5.9086,-3.64364 z m -44.49363,-11.0206 c 2.93181,-2.81065 2.70378,-7.1807 -0.52517,-10.06577 -2.88899,-2.58131 -4.75619,-2.83095 -8.129,-1.08681 -5.5521,2.87111 -5.38966,10.32808 0.27776,12.75003 3.08146,1.31684 5.89648,0.78 8.37641,-1.59745 z m -154.08775,4.44671 c -5.34378,-3.25848 -7.60452,-9.069 -5.49387,-14.12029 2.73141,-6.5374 7.9993,-9.23741 14.48155,-7.42249 3.11521,0.87221 4.02644,0.76541 9.22624,-1.08127 7.74238,-2.74966 19.32962,-5.77708 28.0717,-7.33438 3.94261,-0.70234 8.9606,-1.60904 11.15087,-2.01488 5.63187,-1.04348 37.81224,-1.90012 45.21014,-1.20348 4.98638,0.46955 6.34484,0.88716 7.02588,2.15974 0.63686,1.18995 0.54375,2.03637 -0.37881,3.44438 l -1.22309,1.86675 -23.72411,0.33364 c -21.36537,0.30047 -24.88738,0.5448 -35.42643,2.45761 -10.9472,1.98691 -22.87359,4.91875 -29.31722,7.20705 -2.49908,0.8875 -2.76144,1.2556 -2.53453,3.55523 0.39897,4.04169 -1.28721,7.83241 -4.83482,10.869 -3.84462,3.29081 -8.19335,3.74704 -12.2335,1.28339 z m 9.57549,-8.20785 c 0.51033,-1.4601 0.45618,-2.8128 -0.16755,-4.1816 -1.75233,-3.84615 -8.92094,-2.11651 -8.92094,2.15245 0,4.73325 7.55388,6.41979 9.08849,2.02915 z"
       id="path1"
       inkscape:label="logo" /></g></svg>
