<?xml version="1.0" encoding="UTF-8" standalone="no"?>
<!-- Created with Inkscape (http://www.inkscape.org/) -->

<svg
   width="900mm"
   height="900mm"
   viewBox="0 0 900 900"
   version="1.1"
   id="svg1"
   xml:space="preserve"
   inkscape:version="1.4 (86a8ad7, 2024-10-11)"
   sodipodi:docname="beltane logo solo.svg"
   xmlns:inkscape="http://www.inkscape.org/namespaces/inkscape"
   xmlns:sodipodi="http://sodipodi.sourceforge.net/DTD/sodipodi-0.dtd"
   xmlns="http://www.w3.org/2000/svg"
   xmlns:svg="http://www.w3.org/2000/svg"><sodipodi:namedview
     id="namedview1"
     pagecolor="#505050"
     bordercolor="#eeeeee"
     borderopacity="1"
     inkscape:showpageshadow="0"
     inkscape:pageopacity="0"
     inkscape:pagecheckerboard="0"
     inkscape:deskcolor="#505050"
     inkscape:document-units="px"
     inkscape:zoom="0.125"
     inkscape:cx="1364"
     inkscape:cy="1204"
     inkscape:window-width="1920"
     inkscape:window-height="1057"
     inkscape:window-x="1912"
     inkscape:window-y="-8"
     inkscape:window-maximized="1"
     inkscape:current-layer="layer1" /><defs
     id="defs1" /><g
     inkscape:label="Layer 1"
     inkscape:groupmode="layer"
     id="layer1"><path
       style="fill:#000000;stroke-width:0.99134"
       d="m 437.55426,842.26922 c -14.30598,-4.54631 -34.21623,-15.48806 -52.20653,-28.69038 -1.4668,-1.07641 -6.23565,-2.61316 -10.59757,-3.41499 -34.43433,-6.32992 -61.09046,-16.09653 -95.66466,-35.05087 -21.3582,-11.709 -40.54506,-25.17228 -61.02622,-42.82159 -8.35842,-7.2027 -36.14414,-35.66507 -43.54994,-44.61041 -32.02478,-38.68221 -56.00085,-81.94026 -69.78133,-125.90064 -5.35132,-17.071 -6.15137,-19.93168 -8.13649,-29.09328 -7.541974,-34.80724 -10.470024,-64.95673 -9.353574,-96.3117 0.6897,-19.36996 1.1571,-24.55741 3.9698,-44.05973 3.276824,-22.72047 11.924544,-54.38127 20.322924,-74.40582 1.71506,-4.0893 3.72165,-9.05825 4.45907,-11.04212 2.98394,-8.02755 17.17033,-34.89392 24.00685,-45.46447 5.38794,-8.3308 10.75925,-15.83214 11.34664,-15.84622 0.35022,-0.007 3.86184,3.81456 7.80362,8.49549 7.96748,9.46153 7.83753,8.33406 1.98997,17.26416 -5.72857,8.74839 -17.69875,31.94793 -22.96221,44.50329 -2.19617,5.23872 -4.57881,10.86325 -5.29475,12.49896 -0.71596,1.63572 -3.11115,8.42293 -5.32267,15.0827 -19.12541,57.59413 -22.0324,124.80352 -7.94476,183.68171 9.57954,40.03699 22.92348,71.87605 44.50112,106.18121 6.54364,10.40339 20.34113,29.63286 21.26213,29.63286 1.11068,0 15.95163,-6.20119 21.2887,-8.89535 3.20115,-1.61594 8.53766,-5.45381 11.85875,-8.52861 l 6.03847,-5.59051 v -5.87255 c 0,-3.48916 -0.87744,-8.37447 -2.16182,-12.03718 -1.6941,-4.83095 -2.17501,-8.52379 -2.22299,-17.0694 -0.0595,-10.50238 0.0753,-11.21172 3.63347,-19.22264 3.40219,-7.65922 6.72558,-12.5363 19.92066,-29.23371 11.33759,-14.34691 14.7853,-27.33105 12.51086,-47.11553 -1.54571,-13.44473 -1.53877,-24.37643 0.0199,-31.3201 2.24708,-10.01085 9.2877,-22.39934 20.35863,-35.82261 11.83407,-14.34861 15.68079,-20.33061 17.91061,-27.8529 0.84562,-2.85242 1.98179,-5.46085 2.52485,-5.79652 2.32183,-1.43494 2.85983,-5.45084 1.15908,-8.652 -1.27457,-2.39908 -1.78224,-6.50146 -2.0956,-16.93293 -0.50748,-16.89715 0.28659,-20.06078 6.29612,-25.08411 3.78714,-3.16564 4.42774,-4.23503 4.42774,-7.39197 0,-10.83068 -6.84721,-16.68877 -36.18404,-30.9574 -14.01037,-6.81422 -31.64052,-16.32161 -42.19555,-22.75475 -27.21106,-16.58472 -60.74493,-50.63964 -78.0907,-79.30408 -10.96284,-18.11646 -21.20507,-42.85705 -24.08057,-58.16771 -1.57872,-8.40604 -1.61587,-34.14855 -0.063,-43.61912 2.53801,-15.47792 10.0612,-34.674208 17.87174,-45.601811 4.70136,-6.577594 18.70303,-20.455838 22.02674,-21.832565 1.58559,-0.65677 3.61445,-0.913401 4.50857,-0.570294 2.23927,0.859288 1.37571,4.579679 -3.67123,15.81659 -6.33858,14.112707 -9.70943,24.888163 -11.82909,37.8136 -4.41467,26.92002 -1.14605,50.89278 9.93103,72.83634 1.61892,3.20708 3.37876,6.10004 3.91075,6.42885 0.53201,0.32879 1.46815,-1.31161 2.08032,-3.64533 11.25525,-42.90702 23.28502,-65.29334 47.72095,-88.804357 9.06801,-8.724791 14.53855,-12.899334 22.13957,-16.894752 8.83714,-4.645086 11.18028,-4.082588 9.96559,2.392262 -0.40012,2.132789 -4.21798,8.147425 -10.18477,16.04501 -13.73834,18.183947 -20.36141,29.003957 -27.45437,44.851987 -5.899,13.1803 -11.48445,38.90589 -11.48445,52.89553 0,13.52939 6.09521,37.09323 12.21685,47.23018 3.5956,5.95402 10.22135,14.23045 14.20189,17.74017 6.21682,5.48146 18.16578,13.43255 26.0078,17.30622 8.22181,4.06125 10.59439,4.5278 9.56637,1.88116 -2.93368,-7.55271 -4.17108,-42.7072 -1.80573,-51.30203 0.60016,-2.18096 1.98169,-7.31116 3.06999,-11.40045 2.22933,-8.37715 7.91727,-21.42864 11.77478,-27.01843 3.15753,-4.57541 8.50245,-8.04384 11.11703,-7.214 2.03413,0.64561 4.06331,5.20939 4.06331,9.13877 0,1.30246 -1.44091,8.03898 -3.20203,14.97006 -2.84684,11.20441 -3.20423,14.1411 -3.22187,26.48077 -0.0168,11.54792 0.37076,15.29398 2.30607,22.30523 6.10945,22.13422 16.52381,37.46684 35.30293,51.97496 10.79861,8.34272 15.656,11.22268 16.19608,9.60265 0.80487,-2.41467 9.95378,-12.70881 15.22565,-17.13154 22.47198,-18.85258 49.71063,-28.99689 81.138,-30.21772 16.63277,-0.64612 28.40111,0.38071 41.37749,3.61034 25.00685,6.22386 48.26793,19.64426 64.13458,37.00226 l 7.33108,8.02011 7.76788,-5.30557 c 23.27665,-15.89826 35.93541,-32.89037 42.43664,-56.96337 2.40837,-8.91746 2.61408,-11.05213 2.2453,-23.29658 -0.31059,-10.31421 -1.06976,-16.27313 -3.23287,-25.37571 -3.41528,-14.37152 -3.68492,-20.2931 -1.05618,-23.19784 1.03606,-1.14478 3.00625,-2.08142 4.37837,-2.08142 6.14455,0 16.77364,17.23585 22.61968,36.67971 2.75227,9.15388 2.8291,10.01496 2.73979,30.73165 -0.0683,15.82706 -0.47744,22.6537 -1.58963,26.51845 -1.02178,3.55063 -1.15016,5.20389 -0.40377,5.20244 2.00538,-0.004 16.8699,-8.08086 23.39918,-12.71458 19.48634,-13.82923 29.05688,-28.58867 34.89807,-53.81876 3.14097,-13.56697 2.96332,-32.16511 -0.44868,-46.97339 -6.08012,-26.38788 -16.79001,-46.84864 -38.55326,-73.654438 -12.5761,-15.490009 -11.33295,-22.430366 2.67841,-14.953464 8.36267,4.46253 14.89582,9.532734 24.05941,18.671665 23.82308,23.759207 34.0011,43.267927 44.67529,85.631437 1.91181,7.5872 1.90348,7.58905 6.92553,-1.54257 4.84817,-8.81535 8.70549,-20.29231 10.95009,-32.58125 2.56708,-14.05411 2.577,-20.95282 0.0525,-36.59095 -2.47042,-15.303697 -6.71446,-29.076616 -13.0788,-42.443896 -5.32059,-11.175001 -5.70651,-14.402023 -1.77316,-14.824693 6.05721,-0.650897 22.46482,17.085641 31.11124,33.631104 9.26866,17.736022 12.87477,33.503655 12.88796,56.351825 0.0109,19.07575 -2.37705,31.34097 -9.54377,49.01705 -1.96445,4.84508 -12.09875,24.33888 -15.74719,30.29043 -16.56337,27.01918 -42.34049,54.83569 -66.29273,71.53767 -14.01454,9.77234 -27.19346,17.48717 -47.58451,27.85549 -39.94648,20.31173 -40.85733,21.01699 -42.23014,32.69723 -0.61533,5.23601 -0.55922,5.39892 2.26343,6.56811 1.59201,0.65941 4.12549,3.07734 5.62995,5.37315 l 2.73541,4.17422 -0.31673,15.8615 c -0.25706,12.87322 -0.64725,16.46918 -2.07082,19.08699 -1.72008,3.16273 -1.70541,3.32851 0.75154,8.52207 1.37816,2.91312 2.50572,5.98893 2.50572,6.83512 0,2.34931 5.44029,12.17558 9.63318,17.39926 2.05852,2.56472 6.71447,8.13891 10.34655,12.38705 7.60252,8.89223 12.12989,16.14918 16.20917,25.98178 2.7257,6.56991 2.87916,7.70479 2.88172,21.3139 0,7.90595 -0.14512,19.34764 -0.32584,25.42595 -0.55744,18.7435 2.61774,26.7734 18.28166,46.23398 10.1238,12.57759 15.426,21.90286 17.19942,30.24941 1.74962,8.2343 1.35823,18.81959 -1.01851,27.55025 -1.17405,4.31283 -2.33541,10.00531 -2.58066,12.65 -0.44264,4.77102 -0.39971,4.85358 5.50215,10.59302 6.10271,5.93472 14.5331,10.79923 26.56217,15.32697 3.62603,1.36483 6.70911,2.48151 6.85137,2.48151 0.3649,0 8.18205,-10.36186 12.71398,-16.85284 12.54594,-17.96934 22.55069,-35.46277 31.32685,-54.77517 3.31268,-7.2898 6.02311,-13.60533 6.02311,-14.03454 0,-0.4292 0.6522,-2.18611 1.44934,-3.90423 9.14555,-19.71166 19.68314,-64.74241 22.42141,-95.81448 1.26398,-14.34325 0.64131,-61.85084 -0.92907,-70.88106 -0.47407,-2.72621 -1.63463,-9.64082 -2.57888,-15.36583 -2.72234,-16.50474 -9.25628,-40.67598 -14.94174,-55.2737 -1.32859,-3.41122 -3.58975,-9.21057 -5.02472,-12.88747 -6.50461,-16.66601 -19.02388,-40.34291 -29.3053,-55.42318 -1.54779,-2.27009 -2.81404,-4.3962 -2.81404,-4.72469 0,-1.18835 14.27584,-17.41793 15.30298,-17.3973 1.23273,0.0248 8.91555,11.36527 17.54232,25.89375 14.16709,23.85908 25.97102,51.52738 34.40894,80.65452 5.60605,19.35146 10.22164,44.09826 12.18153,65.31134 1.22728,13.2845 0.51352,62.8061 -1.03764,71.98975 -0.50657,2.99881 -1.61539,10.26105 -2.46407,16.13831 -0.8486,5.87724 -2.40679,14.35322 -3.46268,18.83552 -1.05578,4.48229 -2.22745,9.71098 -2.60366,11.61931 -3.42351,17.36526 -15.9538,51.80051 -27.17015,74.66811 -39.84389,81.23268 -106.0244,145.09788 -187.43373,180.87632 -23.22045,10.20509 -45.08205,16.6069 -75.34212,22.06268 -14.2697,2.57278 -13.96317,2.4459 -23.79224,9.84685 -10.43538,7.85744 -16.07286,11.51322 -25.24347,16.36995 l -7.96655,4.21911 z m -4.8105,-18.15743 c 0,-0.20604 -0.66915,-1.97612 -1.48702,-3.93354 -2.91295,-6.97159 -1.57732,-13.69577 5.56719,-28.02809 1.94106,-3.89393 3.22069,-8.23948 3.57419,-12.13731 0.55595,-6.1316 -1.13984,-19.9848 -2.83821,-23.18567 -0.57032,-1.0748 -0.56596,-1.73484 0.0118,-1.73484 1.42624,0 5.67425,7.78879 7.97853,14.62888 2.4846,7.37557 2.60237,13.64043 0.44789,23.82748 -2.24609,10.6202 -2.17322,20.59677 0.18251,24.98963 l 1.86065,3.4697 0.64368,-5.66945 c 0.35391,-3.11821 1.30262,-6.68704 2.10809,-7.93075 0.80557,-1.24372 2.9205,-6.48362 4.69976,-11.64424 3.01913,-8.75606 3.20442,-10.04755 2.77418,-19.33119 -0.49746,-10.73433 -2.59058,-17.26427 -8.63322,-26.93329 -1.65832,-2.6535 -4.68707,-8.17032 -6.73053,-12.25961 -3.64665,-7.29737 -3.71546,-7.64625 -3.71546,-18.83554 0,-10.2571 0.28384,-12.09639 2.83019,-18.33985 1.55661,-3.81667 3.6199,-8.27773 4.58497,-9.91344 3.2867,-5.57031 6.75997,-15.84708 7.45272,-22.05069 0.71823,-6.43296 -1.04042,-26.24525 -2.59118,-29.19117 -0.53403,-1.01439 -0.5029,-1.90877 0.0793,-2.26839 1.12022,-0.69236 5.69022,8.0845 9.02142,17.32621 1.89218,5.24913 2.30418,8.28157 2.22249,16.35717 -0.0902,8.89989 -0.53909,11.23105 -4.39264,22.8009 -3.90906,11.73654 -4.2944,13.77724 -4.31462,22.85064 l -0.0219,9.96317 7.65942,15.3161 c 4.21272,8.42385 7.95454,17.2398 8.31519,19.59099 1.0206,6.65436 2.53943,3.50094 3.09548,-6.42716 0.42756,-7.63404 -0.41181,-17.86904 -2.36397,-28.82723 -0.75193,-4.22032 1.18169,-4.24303 2.02552,-0.0239 0.35172,1.75894 1.48275,4.9932 2.51315,7.18725 1.0305,2.19402 3.36354,7.33494 5.18453,11.42423 l 3.311,7.43507 -0.0407,16.85284 c -0.0297,12.39435 -0.46366,18.36087 -1.64078,22.55307 -0.8802,3.13513 -1.28427,5.70022 -0.89776,5.70022 1.68093,0 7.05064,-6.92607 9.60731,-12.39179 2.43544,-5.20637 2.82741,-7.36962 3.14395,-17.34851 0.36462,-11.49739 -0.20976,-15.02751 -4.17663,-25.6704 -0.8931,-2.39608 -2.11741,-7.84696 -2.72075,-12.11307 -1.46163,-10.33568 0.36126,-17.97474 6.51978,-27.32226 5.44208,-8.26011 7.65902,-16.14822 8.44942,-30.06326 l 0.59124,-10.40911 2.88748,9.91345 c 3.73668,12.82873 4.01693,23.4969 0.80338,30.58345 -1.19933,2.64469 -2.67128,7.62626 -3.27093,11.07015 -1.78561,10.25341 -0.0208,16.24359 10.42794,35.40406 2.83922,5.20619 3.76592,8.18968 4.21767,13.57821 0.59024,7.0403 -0.99025,18.33541 -2.88837,20.64244 -0.67164,0.81642 -0.67927,1.23918 -0.0219,1.23918 2.06011,0 8.005,-7.87719 10.03042,-13.29063 3.64596,-9.74449 2.29357,-20.26988 -4.2151,-32.80685 -2.82018,-5.43235 -3.08843,-6.76459 -3.09409,-15.36583 0,-7.69833 0.51224,-10.99929 2.83298,-18.08031 2.55716,-7.80237 2.79786,-9.67272 2.42412,-18.83553 -0.38691,-9.48432 -0.69166,-10.7434 -4.50099,-18.5994 -2.24728,-4.63452 -5.94064,-10.87999 -8.20744,-13.87881 -4.73178,-6.25959 -8.02215,-12.38603 -11.03682,-20.54936 -3.94138,-10.67268 -8.06944,-16.67609 -14.07045,-20.46246 -3.21215,-2.0267 -4.24185,-1.63472 -2.79717,1.06477 1.31512,2.45731 5.063,17.14615 4.37491,17.14615 -0.29493,0 -5.88294,-5.59343 -12.41768,-12.42984 -6.53483,-6.8364 -12.07932,-12.23195 -12.32121,-11.99011 -1.06668,1.06666 3.32269,10.90139 9.25211,20.73011 11.26276,18.66951 14.09304,27.90843 12.89411,42.09123 -0.56764,6.71594 -6.61117,26.90261 -9.49509,31.716 -1.14976,1.91895 -0.64993,-6.99074 1.01375,-18.07185 3.07425,-20.47601 -2.00113,-35.72959 -18.61376,-55.94266 -2.88194,-3.50652 -7.20103,-10.16356 -9.59789,-14.79344 l -4.35815,-8.41796 -1.49564,2.89731 c -2.92249,5.66104 -6.66282,19.8896 -6.63864,25.25371 0.0129,2.97068 0.93683,8.07786 2.05189,11.34929 2.21031,6.48448 3.96289,20.14925 2.68555,20.93873 -0.43807,0.2707 -0.79645,-0.0356 -0.79645,-0.68064 0,-0.64504 -1.82417,-4.79784 -4.0538,-9.22843 -8.5086,-16.90803 -10.12627,-22.0235 -10.22788,-32.34354 -0.0724,-7.36957 0.30047,-10.1385 1.71522,-12.73176 0.99431,-1.82269 1.62094,-3.50099 1.39233,-3.72954 -0.2285,-0.22856 -2.49897,1.41839 -5.04544,3.65986 -6.60462,5.81364 -9.68284,11.54535 -10.2948,19.16954 -0.49389,6.15347 -0.18548,8.13764 3.94198,25.35489 1.20131,5.01112 2.05029,12.04264 2.0945,17.34852 0.0724,8.66331 -0.0733,9.25279 -5.00964,20.32379 -2.7961,6.27095 -5.78261,13.40862 -6.63656,15.8615 -3.94604,11.33448 -0.47257,27.9062 9.47655,45.21184 9.45603,16.44783 10.2145,20.92215 7.0901,41.8236 -2.16401,14.47617 -1.1579,20.53346 4.34663,26.17061 3.21831,3.29583 5.26276,4.61538 5.26276,3.39664 z M 419.24662,725.8477 c 0.16099,-11.03284 0.38723,-12.32218 3.11778,-17.7673 3.29929,-6.57916 6.39426,-9.08814 3.9271,-3.18361 -1.32978,3.18286 -5.76912,22.70323 -6.79358,29.87301 -0.23365,1.63571 -0.34677,-2.37923 -0.2513,-8.9221 z m -25.16526,72.37203 c 0,-0.27045 -0.98441,-3.28166 -2.18739,-6.69157 -2.74127,-7.76962 -2.95471,-22.5651 -0.42539,-29.49642 2.58909,-7.09545 3.04075,-17.14788 1.23591,-27.51022 -3.32825,-19.10931 -1.57089,-28.66313 8.2443,-44.8189 10.44431,-17.19144 12.29098,-21.93788 12.3574,-31.76196 0.0545,-8.00309 -0.16248,-8.87466 -4.31165,-17.34851 -3.94366,-8.05419 -4.3749,-9.64533 -4.43289,-16.35717 -0.0565,-6.51055 0.29512,-8.03606 2.82552,-12.26823 2.43584,-4.07407 2.58444,-4.6698 0.94634,-3.79307 -2.89234,1.5479 -10.81417,10.30683 -12.81638,14.17061 -3.09488,5.97231 -3.47239,9.8227 -2.2456,22.90093 1.58368,16.88143 0.73598,21.00252 -7.19944,35.00067 -4.62759,8.16321 -6.85632,13.47305 -8.86489,21.12029 -2.40895,9.17143 -2.75147,9.88065 -3.35134,6.9394 -0.36749,-1.80186 -0.89596,-6.62188 -1.17443,-10.71117 -0.52849,-7.76208 0.52333,-13.82663 5.91623,-34.11103 1.43636,-5.40272 2.34056,-10.08681 2.00926,-10.40912 -1.71006,-1.66344 -14.07391,15.76865 -17.95789,25.31925 -4.82526,11.86527 -3.38415,26.75606 4.57466,47.27088 2.34293,6.03903 1.35348,13.29946 -3.11976,22.89327 -3.8146,8.18134 -4.23502,9.85792 -4.55622,18.16895 -0.30504,7.89283 -0.0456,9.80746 1.8768,13.87882 3.82154,8.0913 7.70216,11.14521 6.31626,4.97073 -2.12484,-9.46736 0.88447,-23.63883 6.63783,-31.25912 4.48206,-5.93653 5.82396,-9.58211 5.82396,-15.82316 0,-2.32088 0.41874,-4.21975 0.93057,-4.21975 2.42878,0 2.4509,18.4321 0.0327,26.86554 -3.48101,12.1374 4.65723,37.23695 12.17241,37.54164 0.40893,0.0165 0.74351,-0.19113 0.74351,-0.46158 z M 328.0095,760.56197 c -2.16747,-6.36126 -0.84899,-10.00246 6.48378,-17.90584 3.0579,-3.29587 6.66877,-8.20303 8.02414,-10.90478 2.6678,-5.31813 2.84872,-9.30825 1.88553,-41.59203 l -0.38444,-12.88746 3.61671,-7.43507 c 1.98914,-4.08929 6.15437,-10.29609 9.25599,-13.7929 3.10161,-3.4968 6.11341,-7.51175 6.69285,-8.9221 0.57935,-1.41034 1.40523,-10.14804 1.83528,-19.41712 0.54425,-11.73076 1.37588,-18.96191 2.7363,-23.79224 1.83201,-6.5046 1.96009,-6.69094 2.04465,-2.97402 0.0813,3.55772 4.61202,22.15432 5.66216,23.23852 0.23306,0.24069 0.13046,-2.71856 -0.22801,-6.57612 -1.17475,-12.63907 4.89734,-27.25668 15.67145,-37.72651 7.0443,-6.84545 9.10619,-8.3512 16.61353,-12.1325 5.4868,-2.76359 7.68193,-3.28148 15.34194,-3.61942 8.76576,-0.38672 9.0128,-0.46604 12.75384,-4.0944 2.09817,-2.03501 4.54708,-4.92682 5.44218,-6.42623 0.89498,-1.49941 1.9813,-2.72619 2.41402,-2.72619 0.43272,0 2.13218,2.18656 3.77661,4.85904 4.10556,6.67249 5.99089,7.64403 16.03509,8.26315 10.45392,0.64437 18.10997,3.9049 26.90507,11.45823 13.34527,11.46109 21.36742,27.41569 21.51612,42.79139 l 0.0535,5.49194 2.38676,-7.93076 c 1.32067,-4.3884 2.40391,-10.56537 2.42523,-13.82923 0.0455,-6.96497 1.09404,-6.34158 3.36084,1.99815 1.15264,4.24055 1.63444,10.08708 1.63444,19.83342 0,7.60118 0.4118,15.2563 0.9152,17.01139 0.50331,1.75511 3.596,6.88236 6.87249,11.39392 3.27649,4.51155 7.63255,11.7322 9.68008,16.04589 4.93352,10.39414 5.52713,19.14586 2.34899,34.63192 -1.32949,6.47823 -2.02185,12.67496 -1.7417,15.58985 0.64477,6.71062 5.83575,16.7172 12.28652,23.68481 7.09882,7.66758 8.1437,11.36351 5.68357,20.10467 -0.86049,3.05751 2.15687,0.91924 4.4432,-3.14869 3.31951,-5.90627 2.8983,-12.34577 -1.3394,-20.47576 -7.50289,-14.39443 -8.90059,-24.1215 -5.52377,-38.44064 5.18612,-21.99075 2.91108,-34.30956 -9.79913,-53.0598 -3.18361,-4.69645 -6.3454,-10.54645 -7.02635,-13.00003 -0.68095,-2.45358 -1.33376,-10.92957 -1.45053,-18.83552 -0.19093,-12.91623 -0.48784,-15.1197 -2.92745,-21.72028 -2.84981,-7.71049 -10.1111,-20.61732 -16.78205,-29.8296 -5.52882,-7.63507 -11.62508,-13.1079 -21.41619,-19.22581 -16.61928,-10.3845 -19.72903,-11.20836 -28.18638,-7.46726 -5.46509,2.41745 -5.30766,2.81813 3.54802,9.02995 3.16913,2.22308 5.54537,4.39265 5.28049,4.82128 -0.26489,0.42864 -3.56696,-0.72219 -7.33783,-2.55739 l -6.85623,-3.33672 -18.16815,-0.2167 c -17.76994,-0.21194 -18.29248,-0.15927 -23.84193,2.40306 -9.67015,4.46493 -11.98266,4.39896 -5.1872,-0.14801 3.29553,-2.20504 6.81172,-4.91513 7.81377,-6.02238 1.78551,-1.973 1.76489,-2.03351 -1.03516,-3.03018 -1.57128,-0.55934 -3.63159,-1.46289 -4.57842,-2.00789 -2.07765,-1.19602 -11.33829,-1.32491 -12.05345,-0.16778 -0.27975,0.45273 -4.20954,2.98902 -8.73274,5.63621 -16.37294,9.58219 -22.91729,15.66369 -31.99017,29.72783 -6.50262,10.07984 -8.84476,14.55599 -12.15348,23.2271 -2.16965,5.68576 -2.576,8.7695 -3.20957,24.35426 -0.79852,19.64593 -1.5792,22.44665 -8.52179,30.57443 -4.8321,5.65695 -10.02456,16.22595 -11.24679,22.89236 -1.52052,8.29284 -1.31075,19.69479 0.51183,27.82339 0.85574,3.81667 1.79077,8.99349 2.07776,11.50405 0.73925,6.46675 -2.07537,17.79548 -6.779,27.28513 -4.24464,8.5638 -5.14676,14.80525 -2.79866,19.36306 1.31838,2.55895 6.07604,7.93604 6.57786,7.43421 0.17447,-0.17447 -0.41568,-2.46823 -1.31146,-5.09725 z M 511.72649,581.20639 c -3.01518,-6.58606 -7.64088,-13.46163 -12.90264,-19.17822 -2.13287,-2.31726 -3.48655,-4.21033 -3.00823,-4.2068 1.68875,0.0124 10.47712,8.26401 12.91542,12.12658 2.45487,3.88868 6.67908,15.57017 5.909,16.34028 -0.22146,0.22147 -1.5326,-2.06537 -2.91355,-5.08184 z m -138.44808,3.65987 c -0.0287,-2.29103 3.95726,-11.80431 6.87298,-16.402 2.76932,-4.36671 10.02408,-10.6493 12.29723,-10.6493 0.57409,0 -0.53116,1.67289 -2.45605,3.71753 -5.10631,5.424 -8.99842,10.80537 -13.08505,18.09202 -1.98764,3.54405 -3.62068,5.90284 -3.62911,5.24175 z M 296.92968,742.364 v -13.71969 l -2.52505,-1.15046 c -1.38877,-0.63277 -2.61556,-1.15126 -2.72619,-1.15221 -0.11063,-9.1e-4 -0.0644,5.85917 0.1036,13.02251 0.28074,11.99526 0.47653,13.16761 2.47836,14.83891 1.19546,0.99806 2.28514,1.8295 2.42145,1.84764 0.13631,0.0182 0.24783,-6.14087 0.24783,-13.6867 z m 305.3051,8.09153 c 0.94495,-0.86549 -2.54409,-2.27268 -5.67149,-2.28742 -3.02766,-0.0143 -3.22186,0.19519 -3.22186,3.47467 v 3.48986 l 4.21321,-2.12471 c 2.31727,-1.16856 4.42327,-2.31714 4.68014,-2.5524 z M 267.18938,724.8309 v -13.40861 l -2.97403,1.53794 -2.97403,1.53793 v 9.81603 c 0,9.42364 0.10439,9.89816 2.612,11.87066 1.43665,1.13006 2.77496,2.05465 2.97402,2.05465 0.19916,0 0.36204,-6.03387 0.36204,-13.4086 z m 357.48822,10.33232 2.21922,-2.08494 -3.48754,-4.85447 -3.48755,-4.85447 h -13.78582 -13.78583 v 2.97403 2.97403 h 11.83178 11.83189 l 2.79044,3.94422 c 1.5348,2.16931 2.98484,3.95373 3.22226,3.96537 0.23753,0.0116 1.43051,-0.91706 2.65115,-2.06377 z M 238.07144,708.88797 c 2.11126,-0.87663 6.73836,-2.92179 10.2824,-4.54475 3.54406,-1.62297 8.22816,-3.76125 10.40912,-4.75176 11.92498,-5.41585 11.48561,-5.1183 10.82021,-7.32733 -1.35715,-4.50556 -1.41613,-4.49497 -18.75096,3.36249 -3.74877,1.69918 -6.13503,2.74859 -17.75545,7.80823 l -4.86801,2.11955 2.3146,2.46374 c 2.73848,2.91492 2.64807,2.90449 7.54809,0.86983 z m 419.67193,-0.84683 2.29298,-2.44075 -7.6963,-3.50732 c -4.23294,-1.92902 -7.84668,-3.50731 -8.03038,-3.50731 -0.59203,0 -15.65112,-6.95442 -19.57923,-9.04181 -2.09192,-1.11169 -3.9275,-1.87412 -4.07888,-1.69427 -0.85137,1.01108 -2.52654,4.81398 -2.52654,5.73544 0,0.59277 1.00374,1.4852 2.23052,1.9832 5.49304,2.22979 30.13715,13.1272 31.47516,13.91803 2.38885,1.412 3.47873,1.14559 5.91267,-1.44521 z m -57.31204,-31.7094 c 2.97551,-11.34489 2.23389,-26.44176 -1.87731,-38.21795 -3.539,-10.13735 -11.36775,-26.12613 -14.80454,-30.23598 l -2.48708,-2.97403 0.65766,6.38438 c 0.36174,3.51143 2.18731,10.76063 4.05678,16.10935 1.86957,5.34871 5.01212,14.29751 6.98352,19.88621 3.46196,9.81417 3.58717,10.65229 3.6641,24.53576 0.0475,8.67836 -0.36511,15.41438 -1.04278,16.99874 -0.61733,1.44334 -0.81628,2.93125 -0.44216,3.30644 0.71289,0.71493 1.86056,-2.71037 5.29181,-15.79292 z m -309.26739,11.16782 c -0.55367,-1.80857 -0.88726,-9.53376 -0.74133,-17.1671 l 0.26548,-13.87881 6.49617,-18.89936 c 3.57291,-10.39464 6.79814,-21.54725 7.16732,-24.78359 0.36918,-3.23633 0.88785,-6.66491 1.15254,-7.61908 0.87674,-3.16042 -1.1106,-1.74683 -2.82335,2.00826 -0.92621,2.03058 -4.32483,9.26827 -7.55256,16.08376 -10.14987,21.43187 -12.03589,29.67027 -10.17664,44.45126 0.99592,7.91732 5.75774,24.55414 6.74531,23.56659 0.26053,-0.26051 0.0208,-1.95337 -0.53294,-3.76193 z m 18.17598,-16.47273 c 2.85001,-13.27179 6.4244,-21.1087 13.74885,-30.14486 8.23053,-10.15392 9.78713,-15.17833 10.10576,-32.61924 0.355,-19.43646 2.29208,-25.83645 11.65581,-38.51058 2.23222,-3.02141 4.85204,-7.89834 5.82186,-10.83764 1.99667,-6.05145 4.22066,-17.81761 3.50332,-18.53489 -0.26092,-0.26092 -2.28187,2.55156 -4.49099,6.24995 -2.2091,3.69838 -6.64695,9.84708 -9.86179,13.66374 -3.21491,3.81668 -7.0433,8.71586 -8.5077,10.88707 -1.46431,2.17122 -2.66235,3.41997 -2.66235,2.77499 0,-4.4915 3.07058,-13.09486 8.43058,-23.62132 4.63155,-9.09603 6.56141,-14.13044 7.46105,-19.46427 1.32998,-7.88523 0.83085,-22.29194 -0.87407,-25.22664 -0.59322,-1.02102 -1.09206,-1.34312 -1.10861,-0.71574 -0.0169,0.62736 -0.89659,6.20366 -1.95554,12.3918 -2.10134,12.27898 -3.80477,16.65773 -12.86129,33.06068 -9.63615,17.45277 -9.50123,16.78335 -9.50123,47.14789 v 26.32968 l -6.55109,12.82839 c -7.8233,15.31967 -9.26907,20.66412 -8.53518,31.55127 0.63634,9.43979 2.91435,20.34452 3.44056,16.46984 0.18507,-1.36311 1.41911,-7.51915 2.74205,-13.68012 z m 273.51557,8.08463 c 1.97386,-7.68818 2.01391,-21.27795 0.0823,-27.78362 -0.81509,-2.7445 -3.29652,-8.29025 -5.51445,-12.32389 -8.99039,-16.3505 -8.4052,-13.50975 -8.07162,-39.18201 0.3774,-29.03482 -0.0357,-30.97302 -11.12922,-52.27976 -8.7612,-16.82658 -10.51885,-21.73826 -12.56846,-35.12248 -1.45181,-9.47998 -2.36078,-8.97377 -3.91193,2.17838 -1.41207,10.1528 0.50845,21.40137 5.2672,30.84893 1.91587,3.80356 4.83954,9.59218 6.49697,12.86362 1.65753,3.27144 3.29632,7.73248 3.6418,9.91343 0.59481,3.75449 0.54425,3.85993 -0.9508,1.98269 -0.86851,-1.09048 -2.8281,-3.321 -4.35477,-4.95671 -2.43345,-2.60723 -9.60573,-12.16966 -16.84521,-22.45853 l -2.33342,-3.31641 0.58062,5.47381 c 0.87109,8.21174 4.96039,19.13731 10.33368,27.60915 8.65521,13.64648 9.35461,15.80816 10.14351,31.35437 0.64954,12.80026 2.61022,23.79126 5.12437,28.7258 0.56208,1.10323 3.4233,5.17844 6.35837,9.05605 8.7957,11.62038 14.33037,26.8705 14.46559,39.85806 0.0674,6.43409 1.11298,5.63267 3.18578,-2.44088 z m -345.5579,-9.30832 c 7.09228,-2.69486 11.41443,-6.32263 14.68577,-12.32633 3.89538,-7.14899 4.37916,-18.72764 1.32692,-31.75585 -2.8063,-11.97836 -2.39489,-17.62491 1.95016,-26.76524 2.83505,-5.96367 5.81404,-9.48328 21.1868,-25.03143 9.8385,-9.95061 18.22893,-18.09202 18.64558,-18.09202 1.08682,0 -3.91243,13.14257 -7.54223,19.82793 -3.33111,6.13497 -5.8072,14.32146 -7.87068,26.02171 -1.226,6.9518 -1.89674,12.63964 -1.49058,12.63964 0.40625,0 1.04438,-1.44984 1.41801,-3.22187 0.92829,-4.40178 5.0161,-13.63364 15.18838,-34.30128 12.94278,-26.29651 19.74886,-43.51441 23.99111,-60.69161 0.481,-1.94781 1.53479,-8.86243 2.34165,-15.36584 0.80685,-6.5034 1.77163,-13.83185 2.14398,-16.28542 0.88923,-5.86003 -0.82489,-4.36496 -3.44075,3.00101 -1.05975,2.98397 -3.50153,9.14767 -5.42622,13.69709 -1.9248,4.54943 -4.24969,10.57184 -5.16649,13.38314 -0.9168,2.81131 -1.99586,5.55756 -2.39786,6.1028 -0.4021,0.54524 -1.28914,2.77577 -1.97129,4.95672 -1.94541,6.21978 -3.34994,6.76096 -2.57293,0.99135 1.71721,-12.74908 2.54905,-21.25845 2.55597,-26.14416 0.01,-4.52411 -0.20748,-5.14753 -1.42028,-4.14095 -2.29022,1.90068 -7.49506,16.59553 -9.49797,26.8154 -1.01514,5.17977 -2.54775,11.72475 -3.40596,14.5444 -1.98387,6.51817 -8.85309,15.67291 -17.19822,22.9201 -20.17404,17.51988 -25.43689,23.68338 -29.5474,34.60409 -2.94458,7.82281 -3.4588,20.07021 -1.11565,26.5701 2.49283,6.91528 3.97489,17.28187 3.47317,24.29426 -0.95129,13.29486 -9.1736,21.36751 -26.23364,25.75593 -3.05759,0.7865 -2.26908,0.87901 4.16385,0.48851 4.43121,-0.26898 10.27231,-1.36958 13.2268,-2.49218 z m 427.89207,1.14186 c -11.83496,-4.26332 -19.06503,-9.85271 -22.82747,-17.6472 -2.76535,-5.72878 -2.36644,-15.71401 1.04238,-26.08878 3.9747,-12.09744 4.0097,-23.69754 0.0991,-32.69187 -4.88018,-11.22283 -10.36757,-17.76179 -28.46702,-33.92222 -13.32891,-11.90091 -17.44825,-19.25039 -21.81283,-38.9175 -1.91815,-8.64323 -8.25691,-23.38669 -10.33516,-24.03887 -0.69989,-0.21962 -0.63138,2.81205 0.21116,9.35537 2.24856,17.46141 2.6445,23.06341 1.62996,23.06341 -0.53285,0 -1.45043,-1.44984 -2.03909,-3.22188 -0.58866,-1.77202 -3.07643,-7.90595 -5.52852,-13.63096 -2.45199,-5.72501 -5.57503,-13.53184 -6.94001,-17.34852 -1.36498,-3.81667 -3.30157,-9.16993 -4.30342,-11.89612 l -1.82159,-4.95672 -0.31981,3.3443 c -0.32497,3.39861 2.00083,22.91501 3.91362,32.83974 2.48244,12.88104 14.04953,41.46633 26.54224,65.59303 6.34688,12.25756 12.34411,26.23021 13.44272,31.31947 1.1335,5.25085 2.27116,2.76988 1.34892,-2.94147 -2.83653,-17.56496 -3.94188,-22.1809 -7.66586,-32.01205 -2.27186,-5.99763 -5.01511,-12.83323 -6.09608,-15.19022 -1.12765,-2.45849 -1.44785,-3.9655 -0.75123,-3.53495 1.54481,0.95474 18.49599,17.00732 25.37166,24.02663 14.14974,14.44544 18.83344,29.62153 14.57939,47.23974 -2.33144,9.65549 -1.91418,20.80782 1.01385,27.09735 1.35387,2.90827 3.46851,6.15265 4.69916,7.20973 5.75842,4.94623 16.43994,8.66424 25.03847,8.71537 l 4.95671,0.0295 z m -197.116,-81.58977 c 6.19471,-0.64572 11.26325,-1.4664 11.26325,-1.82374 0,-1.24002 -14.40461,-7.6645 -19.97617,-8.90942 -3.77286,-0.843 -10.5697,-1.10034 -20.81821,-0.78822 -13.97001,0.42547 -15.71984,0.68938 -21.36009,3.22159 -3.37889,1.517 -6.8703,3.56133 -7.75865,4.54298 -1.52984,1.69041 -1.33603,1.83909 3.6651,2.81118 2.90425,0.56449 6.17259,1.22062 7.26308,1.45804 4.33693,0.94423 37.12492,0.59218 47.72169,-0.51241 z m -90.53574,-52.56771 c 3.37384,-3.24868 9.36859,-8.11305 13.32157,-10.80971 7.1346,-4.86712 7.18725,-4.93568 7.18725,-9.37332 0,-2.45867 0.85602,-6.14834 1.90228,-8.19923 2.0388,-3.99636 9.55963,-12.05361 11.25116,-12.05361 0.67799,0 0.82153,3.57586 0.42479,10.58155 -0.50093,8.84703 -0.32793,11.04076 1.05578,13.38313 1.94403,3.29098 5.60913,3.74583 7.13957,0.88605 1.80176,-3.36658 4.68825,-3.43955 9.73964,-0.24621 9.93208,6.27883 21.01381,5.81889 30.2911,-1.25719 4.22986,-3.22634 5.06775,-3.17823 7.74646,0.44492 2.73155,3.6946 5.03632,3.77821 7.33754,0.2662 1.62906,-2.48629 1.67595,-3.59184 0.57288,-13.51162 -0.66072,-5.94205 -0.99531,-11.00972 -0.7436,-11.26147 1.1569,-1.15687 4.41395,1.22032 8.04228,5.86966 5.58948,7.1625 6.28244,8.68799 6.63079,14.59806 l 0.30862,5.23565 6.60591,4.4329 c 6.37156,4.27566 15.3909,12.96315 20.88374,20.11532 1.45282,1.89171 2.94647,3.13451 3.31922,2.7618 0.37275,-0.37273 1.68806,-6.60457 2.92307,-13.84858 1.23501,-7.24399 2.589,-14.50922 3.00883,-16.14494 0.71764,-2.79542 0.65438,-2.88473 -1.0533,-1.48701 -0.99918,0.81786 -3.13572,3.27143 -4.74774,5.45239 l -2.93102,3.96538 0.48547,-6.46306 c 0.64567,-8.59584 4.15571,-15.31529 11.76219,-22.5166 7.98408,-7.55877 11.13309,-12.27784 13.66657,-20.48016 3.53136,-11.43324 3.62495,-15.74519 0.57259,-26.37797 -3.51729,-12.25241 -6.39099,-17.81155 -11.44258,-22.1355 -5.2328,-4.47914 -11.34523,-5.90864 -19.58825,-4.58112 -3.30971,0.53299 -7.0436,1.38076 -8.29745,1.8839 -1.98774,0.79757 -1.77172,0.9294 1.68558,1.02878 9.37722,0.26956 22.29512,8.08059 26.27933,15.89036 2.76178,5.41352 2.51067,5.98225 -1.87949,4.25774 l -3.85335,-1.51365 -6.13017,4.07177 c -3.37156,2.23946 -6.29047,4.07175 -6.48645,4.07175 -0.1961,0 0.0525,-1.42524 0.55187,-3.1672 0.5721,-1.99469 0.53651,-4.54818 -0.0962,-6.89755 -1.34009,-4.97704 -2.93329,-5.79692 -2.93329,-1.50957 0,6.4322 -10.56216,13.35805 -16.05114,10.52509 -4.53202,-2.33907 -6.74966,-5.14539 -6.74966,-8.54134 0,-2.61632 -0.40209,-3.2969 -1.94789,-3.2969 -2.57502,0 -4.28598,3.38174 -3.50638,6.93081 0.34409,1.56702 2.35939,4.81869 4.47829,7.22592 2.9782,3.38342 5.15736,4.76795 9.60156,6.10038 11.12764,3.33625 11.13536,3.37526 0.69087,3.45687 -11.83853,0.0925 -14.06053,-0.972 -20.95066,-10.03711 -4.43607,-5.83634 -7.57694,-7.74976 -9.52444,-5.80228 -0.67698,0.67704 -1.40265,6.99286 -1.80514,15.71214 -0.69552,15.06829 -2.48301,25.56497 -5.5194,32.41078 l -1.7528,3.95195 -0.64546,-5.43897 c -0.355,-2.99144 -0.68957,-16.54919 -0.7435,-30.12833 l -0.0981,-24.68933 -3.55754,-10.99904 c -3.65974,-11.31478 -3.81975,-13.95426 -1.23056,-20.29948 l 1.3632,-3.34078 2.84476,5.32928 c 1.56464,2.93109 3.75134,6.33301 4.85927,7.5598 3.05235,3.37963 8.59911,2.95968 17.4186,-1.31878 12.9407,-6.27779 27.28851,-10.51495 37.45702,-11.06168 8.53013,-0.45865 9.44097,-0.3133 14.74198,2.35218 3.10756,1.56257 7.38611,4.80593 9.50778,7.20746 2.12177,2.40153 4.076,4.14816 4.34269,3.88141 0.26676,-0.26676 -0.40121,-3.95034 -1.48445,-8.18574 -2.16778,-8.47602 -6.9397,-17.69646 -10.29689,-19.89621 -1.18762,-0.77816 -8.84001,-2.43318 -17.00521,-3.67783 -14.19692,-2.16406 -17.40274,-2.2626 -73.33514,-2.25402 -55.80402,0.008 -59.12155,0.11097 -72.26072,2.23053 -7.57426,1.22185 -14.12982,2.22155 -14.5678,2.22155 -1.46659,0 -8.76913,11.10589 -10.67776,16.239 -1.03783,2.79119 -2.21931,7.07013 -2.62547,9.50876 l -0.73845,4.43388 4.8333,-4.78065 c 7.432,-7.35108 12.54495,-9.53949 22.28778,-9.53949 6.02329,0 10.16592,0.66461 16.14234,2.58979 11.52328,3.71204 20.31601,7.20385 24.97948,9.92005 2.65839,1.54834 5.60714,2.36031 8.57156,2.36031 3.87259,0 4.93065,-0.46867 7.39522,-3.27569 1.58188,-1.80163 3.46663,-4.7013 4.18833,-6.44373 0.7217,-1.74243 1.6721,-3.16805 2.11196,-3.16805 1.25623,0 2.23449,10.40098 1.46243,15.54928 -0.38405,2.56112 -1.49534,6.69032 -2.46954,9.17599 -1.49495,3.81423 -1.86145,8.92759 -2.34898,32.77266 -0.31784,15.53931 -0.97232,30.03772 -1.4546,32.21867 l -0.87674,3.96537 -1.20816,-2.95395 c -2.82404,-6.90481 -5.05387,-20.07132 -5.66483,-33.44971 -0.35561,-7.78517 -1.04746,-14.93554 -1.53748,-15.88971 -1.60221,-3.11994 -4.2027,-1.81801 -9.74322,4.8781 -7.24018,8.75008 -10.97447,10.41225 -22.53602,10.0309 l -8.69131,-0.28668 5.58365,-1.28528 c 7.20944,-1.65949 13.62979,-4.97081 16.02903,-8.26707 2.60515,-3.57919 3.38345,-10.93096 1.33703,-12.62939 -1.82903,-1.51796 -3.98609,-0.52859 -3.21701,1.47554 0.97399,2.53835 -1.63394,6.27152 -5.78488,8.28101 -3.35937,1.62621 -4.73,1.80105 -7.6968,0.98189 -4.97962,-1.37494 -10.04052,-7.2425 -9.48885,-11.00129 0.5727,-3.90227 -0.65725,-3.55131 -2.70934,0.77306 -1.12032,2.36093 -1.53459,4.93046 -1.19863,7.43508 0.28233,2.10503 0.35579,3.82734 0.16308,3.82734 -0.19262,0 -1.60003,-1.16018 -3.12749,-2.57816 -5.24471,-4.86869 -7.20479,-5.39487 -12.9065,-3.46466 l -5.09234,1.72393 2.15835,-3.9967 c 3.82768,-7.08773 11.42713,-13.73366 18.55885,-16.2302 3.52026,-1.23231 7.96187,-2.2496 9.87021,-2.26066 4.92787,-0.0286 2.02532,-1.48801 -5.77111,-2.90177 -11.91158,-2.15997 -20.14687,1.22782 -25.59876,10.53072 -3.22534,5.50363 -8.24917,22.3139 -8.24957,27.60392 -3e-4,3.84417 2.61358,15.12978 4.74021,20.46547 0.57458,1.44171 5.04107,6.80165 9.92562,11.91096 10.68758,11.17937 13.11618,15.47459 13.80208,24.40988 l 0.51114,6.65968 -4.21776,-5.24959 c -2.31976,-2.88728 -4.37758,-5.08981 -4.57287,-4.89453 -0.40556,0.40563 5.18234,29.34085 6.15663,31.87974 0.52601,1.37072 0.98282,1.10565 2.55796,-1.48449 1.05459,-1.73426 4.67796,-5.81121 8.0518,-9.0599 z m -97.9853,-12.18257 c 2.47479,-18.57924 8.37468,-34.79567 16.09942,-44.25122 2.06576,-2.5286 6.49212,-6.85111 9.83631,-9.60556 13.20678,-10.87785 18.8505,-21.5313 23.72355,-44.78191 1.50575,-7.18422 1.7397,-19.26223 0.43213,-22.30523 -0.8015,-1.86514 -0.85613,-1.87159 -0.92166,-0.10885 -0.16535,4.44611 -7.17019,23.97252 -11.97811,33.38982 -7.54858,14.7853 -16.38135,24.22662 -11.8063,12.61979 1.11724,-2.83439 2.30339,-5.5937 2.63588,-6.1318 2.13011,-3.44653 8.34742,-28.36852 7.0771,-28.36852 -0.47763,0 -0.86841,0.47059 -0.86841,1.04573 0,4.64541 -9.10579,18.80092 -22.6406,35.19622 -14.39005,17.43124 -17.31173,23.91614 -18.59037,41.2629 -0.5608,7.60764 1.50476,36.90008 3.19808,45.35297 0.97576,4.87118 1.73444,2.21506 3.80298,-13.31434 z m 332.95,-1.73485 c 2.90404,-30.71844 2.16935,-41.92521 -3.45939,-52.76735 -2.85349,-5.49654 -5.57899,-9.25322 -16.03995,-22.10858 -4.98219,-6.12263 -13.56713,-19.14608 -17.08194,-25.91357 -5.78003,-11.12897 -3.63873,-0.74667 4.15254,20.13383 2.41898,6.48291 4.16602,12.01931 3.8822,12.3031 -1.5001,1.50012 -11.39361,-13.22051 -17.23887,-25.64999 -2.87965,-6.12331 -8.06923,-21.62096 -8.08797,-24.1533 -0.0129,-1.68328 -0.18499,-1.7818 -0.97618,-0.55754 -2.43197,3.7632 -0.38087,23.38363 3.90758,37.37819 3.30246,10.77708 8.36197,18.77674 17.81108,28.16089 20.01483,19.87742 24.39468,28.49299 27.40985,53.91783 1.67815,14.15089 2.2908,17.34851 3.32349,17.34851 0.37788,0 1.45687,-8.14142 2.39756,-18.09202 z M 337.69156,379.47373 c 20.92389,-3.35084 23.12299,-3.57777 53.91144,-5.56288 29.30858,-1.88972 76.89437,-1.8784 106.56944,0.0253 26.76341,1.71696 35.41912,2.64621 55.8644,5.99751 8.09799,1.32739 15.23566,2.39017 15.86149,2.36177 1.1923,-0.0541 -6.92215,-3.30637 -18.689,-7.49048 -3.81668,-1.35716 -12.96183,-3.97022 -20.32255,-5.80679 -7.36073,-1.83657 -14.27534,-3.57097 -15.36583,-3.85423 -1.09048,-0.28325 9.39299,-0.36307 23.29658,-0.17737 13.90359,0.18569 26.50606,0.65545 28.00546,1.04389 4.25018,1.10109 3.1948,-0.81951 -1.49079,-2.71288 -7.09861,-2.86848 -24.60901,-6.55604 -44.6171,-9.39607 -18.53456,-2.63089 -20.34623,-2.70711 -64.17909,-2.70035 -38.85333,0.005 -48.33563,0.31131 -68.40271,2.20249 -37.0717,3.49375 -62.72559,7.13445 -67.13915,9.52807 -2.55548,1.38598 -1.66049,1.50065 12.61525,1.61634 15.55904,0.12608 35.44271,2.06826 32.71434,3.19544 -0.81786,0.33788 -5.72501,1.49593 -10.90478,2.57346 -17.23143,3.58458 -37.67105,10.24163 -37.67105,12.26917 0,0.47813 0.38712,0.63005 0.86029,0.33759 0.47325,-0.29245 9.06078,-1.84496 19.08336,-3.45003 z m 63.32921,-40.6325 c 17.85985,-1.47785 76.39373,-1.43861 93.40687,0.0626 7.48207,0.66022 13.92461,0.87952 14.31678,0.48737 1.03705,-1.03704 -1.43695,-7.31695 -5.22636,-13.26636 -1.81038,-2.84245 -2.92446,-5.39503 -2.47568,-5.6724 1.17088,-0.7236 14.77548,13.32349 17.33265,17.89622 1.5356,2.74611 2.91376,3.93771 4.80951,4.15846 l 2.6571,0.30942 -2.02235,-5.98837 c -4.23977,-12.55468 -9.71428,-20.02838 -23.52359,-32.11387 -2.92149,-2.5568 -4.92896,-4.64652 -4.46105,-4.64386 1.37837,0.007 14.07559,6.72937 18.54269,9.81592 2.26473,1.56479 7.12885,5.61109 10.80922,8.99179 3.68035,3.38068 6.69156,5.86634 6.69156,5.52369 0,-1.34193 -4.38471,-9.17506 -7.24097,-12.93579 -12.22317,-16.09395 -28.40467,-25.795 -53.23099,-31.91292 -9.1382,-2.2519 -12.58788,-2.5759 -28.25329,-2.65364 -15.43948,-0.0767 -19.1587,0.22289 -27.59821,2.22252 -27.71479,6.56661 -47.88141,18.75487 -55.53824,33.56611 -2.14439,4.14816 -3.30286,12.16103 -1.75825,12.16103 0.61939,0 1.12616,-0.37289 1.12616,-0.82864 0,-0.45577 1.62283,-2.91167 3.60632,-5.45759 5.97255,-7.66604 17.08987,-14.69465 28.4803,-18.00596 6.77683,-1.97008 8.29408,-1.39138 2.93874,1.12087 -2.08896,0.97993 -8.1197,6.04332 -13.40177,11.25197 -7.83211,7.72327 -10.24652,10.83913 -13.08831,16.89071 -1.91657,4.08124 -3.75293,8.55048 -4.08077,9.93161 l -0.59619,2.51118 12.19749,-1.15736 c 6.70861,-0.63654 18.2199,-1.65569 25.58063,-2.26476 z M 196.43893,630.47892 c -0.34448,-0.34448 -0.62632,-4.32472 -0.62632,-8.84498 0,-8.14901 -0.0519,-8.3177 -6.12491,-19.90948 -3.3687,-6.42996 -8.13894,-15.8133 -10.60052,-20.85187 -4.24644,-8.69201 -4.70686,-9.2452 -8.99307,-10.805 -11.63301,-4.23337 -12.54869,-4.84159 -14.15212,-9.40035 -2.39104,-6.79804 -9.30117,-27.56359 -11.16385,-33.54842 -3.47054,-11.15087 -9.34332,-40.01614 -9.40634,-46.23298 -0.0221,-2.16995 1.3791,-4.93976 4.76395,-9.41778 7.56983,-10.01459 7.21981,-8.18632 6.47778,-33.83372 l -0.66764,-23.07633 -4.35481,-2.71125 c -7.70673,-4.79812 -10.24278,-14.34113 -6.13404,-23.08207 2.47303,-5.26114 5.77576,-7.85837 11.9794,-9.42046 l 4.5204,-1.13826 2.1596,-7.59501 c 4.2622,-14.98959 7.16857,-24.56987 9.67235,-31.88295 3.03553,-8.86627 14.20152,-32.14153 20.55197,-42.84013 l 4.53935,-7.64745 3.46626,2.04515 c 1.90643,1.12482 3.46624,2.70144 3.46624,3.50359 0,0.80216 -2.04917,4.83411 -4.5537,8.95993 -9.3647,15.42677 -17.75864,34.11665 -23.50504,52.33609 -7.81255,24.77033 -7.70593,23.4366 -2.33299,29.18069 9.3976,10.0468 6.66978,23.77145 -5.93772,29.87464 l -4.60883,2.23109 0.54752,23.56471 0.54752,23.5647 -4.25039,5.84128 c -7.49467,10.29986 -7.84602,11.38116 -6.49409,19.98507 3.00797,19.14302 16.07799,65.82967 19.09952,68.22422 0.6887,0.5458 3.48273,1.7426 6.20893,2.65954 10.25799,3.45022 11.46131,4.4549 14.34654,11.97831 1.46372,3.81667 6.29798,14.07707 10.7428,22.8009 7.91214,15.52909 8.09507,16.05074 8.7284,24.89154 0.48894,6.8241 0.33775,9.22113 -0.61864,9.81224 -1.69693,1.04876 -6.51149,1.56683 -7.29351,0.7848 z M 158.68227,402.71474 c 3.09201,-3.092 3.17515,-7.53631 0.20278,-10.84033 -2.05099,-2.27983 -4.3824,-2.98474 -8.9221,-2.6976 -2.98827,0.18901 -5.70022,3.79999 -5.70022,7.58987 0,7.52399 9.09283,11.27478 14.41954,5.94806 z m 527.06289,227.55434 c -1.79344,-0.31993 -3.2512,-0.92161 -3.23942,-1.33706 0.0118,-0.41543 2.63589,-4.65344 5.83148,-9.41776 19.207,-28.63585 32.19776,-54.72668 42.10446,-84.56362 5.49897,-16.56168 8.80491,-30.436 12.26796,-51.48646 2.56362,-15.58247 2.69369,-18.04741 2.74702,-52.04553 0.0397,-25.15457 -0.27965,-36.25653 -1.08116,-37.61328 -1.17306,-1.98572 -14.45785,-12.50133 -15.06564,-11.92524 -0.18776,0.17792 0.18003,4.33435 0.81716,9.23651 2.75694,21.21231 2.85696,57.45313 0.23109,83.77376 l -0.70693,7.08677 -9.3237,6.13715 c -5.12791,3.37544 -9.99987,6.81343 -10.82635,7.63998 -0.82659,0.82655 -2.26404,4.3103 -3.19421,7.74167 -0.93028,3.43135 -3.11946,9.80766 -4.86492,14.16957 -4.58327,11.45424 -4.55185,11.20887 -1.81991,14.18392 5.58444,6.08127 5.67535,13.96569 0.21998,19.09065 -2.20524,2.07174 -3.53007,2.4138 -9.34896,2.4138 -5.78965,0 -7.14908,-0.34701 -9.30912,-2.3763 -7.30194,-6.85974 -5.11503,-18.50351 4.17317,-22.21992 3.66122,-1.46491 3.97429,-1.96371 7.38392,-11.76336 1.95839,-5.62845 4.50832,-13.80241 5.66652,-18.16432 l 2.1057,-7.93074 9.37425,-6.35404 c 5.15578,-3.49473 9.77207,-6.84051 10.25843,-7.43508 3.35907,-4.1069 3.83312,-63.23038 0.67628,-84.35391 -5.71034,-38.21006 -12.86654,-61.58276 -26.557,-86.73672 l -5.66216,-10.40327 2.61745,-2.73203 c 1.43964,-1.50263 3.17667,-2.73204 3.86,-2.73204 2.64063,0 15.38238,25.55111 21.73759,43.59061 3.29938,9.36534 9.35411,32.62938 9.36016,35.96471 0,1.01933 0.75164,1.73487 1.81803,1.73487 1.95998,0 18.61694,10.71334 21.3467,13.72962 1.66655,1.84156 2.55499,6.67662 4.6722,25.42844 1.90189,16.84491 0.66717,55.32052 -2.41621,75.29324 -1.42684,9.24218 -3.01605,18.16428 -3.53166,19.82687 -0.51559,1.6626 -1.43892,5.56095 -2.05177,8.663 -1.95822,9.91216 -12.35284,40.23119 -17.77896,51.85784 -10.37213,22.22428 -14.85935,30.36702 -25.40318,46.09748 -11.38399,16.98386 -12.98373,18.66246 -17.08829,17.93022 z m 8.14677,-86.89941 c 2.95866,-2.95865 1.13776,-6.37293 -3.39882,-6.37293 -2.92379,0 -4.95673,1.62637 -4.95673,3.96538 0,3.78744 5.41531,5.34779 8.35555,2.40755 z m -482.94564,20.00759 c -2.49233,-3.16849 -8.42672,-15.24805 -11.94177,-24.30762 -2.83038,-7.2949 -2.88196,-7.35303 -7.58311,-8.54671 -8.86365,-2.25055 -13.27989,-9.64403 -11.48842,-19.2333 0.94814,-5.07516 5.36573,-9.66759 10.27064,-10.67707 2.67432,-0.55041 2.78697,-0.78665 2.21778,-4.65091 -4.43828,-30.13107 -4.43901,-77.15411 -0.002,-99.24003 4.56349,-22.71325 7.43682,-33.16231 12.8215,-46.62604 4.76638,-11.91781 11.50741,-25.03463 14.85915,-28.91336 2.54279,-2.9425 3.38107,-3.33894 5.78033,-2.73377 3.26111,0.82256 4.43189,3.01513 2.828,5.29632 -2.87173,4.0846 -10.76282,19.0557 -13.36004,25.34675 -16.07698,38.94258 -21.06801,81.0093 -15.64689,131.87941 l 2.11133,19.812 3.38439,3.48459 c 6.34174,6.52945 7.19508,13.21847 2.51108,19.68442 -1.63572,2.25806 -2.97403,4.34207 -2.97403,4.63114 0,1.94372 7.85938,20.04504 11.15411,25.6895 l 4.00809,6.86671 -2.87222,2.2983 c -3.56556,2.85311 -3.78831,2.8509 -6.07833,-0.0604 z M 199.2115,519.57742 c 0.8568,-0.85681 1.55782,-2.83241 1.55782,-4.39024 0,-1.55783 -0.70102,-3.53343 -1.55782,-4.39023 -1.83912,-1.83912 -7.45188,-2.06502 -9.14868,-0.36822 -1.86481,1.8648 -1.49223,8.44905 0.54524,9.63577 2.59798,1.51318 6.84353,1.27283 8.60344,-0.48708 z m 451.67208,14.68047 -2.15807,-1.74752 2.07439,-4.94405 c 1.14104,-2.71924 2.72055,-6.28237 3.51005,-7.91809 4.19537,-8.69149 10.76739,-28.84352 14.22519,-43.61912 3.76076,-16.07055 5.31509,-32.21866 3.10112,-32.21866 -2.38616,0 -9.2074,-5.62247 -11.43704,-9.42705 -4.93659,-8.42361 -2.11532,-20.25075 6.03155,-25.28582 2.36048,-1.45888 3.34983,-2.70668 3.01585,-3.80381 -0.27341,-0.89802 -1.39957,-7.57883 -2.50263,-14.84626 -1.10298,-7.26743 -2.201,-13.52976 -2.43991,-13.9163 -0.23881,-0.38653 1.05668,-3.49339 2.87896,-6.9041 l 3.31337,-6.20131 -2.95351,-8.13567 c -3.18806,-8.7817 -11.34394,-26.02838 -14.70023,-31.08529 l -2.07251,-3.12271 2.69458,-2.11955 c 1.48205,-1.16575 3.38435,-1.98671 4.22738,-1.82435 3.19857,0.61599 15.37347,24.82664 19.87803,39.52901 l 2.0034,6.53878 -2.47102,6.08116 c -2.92179,7.19063 -2.96837,8.56317 -0.83343,24.57253 1.60241,12.01594 1.69103,12.27968 4.12617,12.27968 3.45613,0 10.10754,4.11228 13.07187,8.08169 2.1401,2.86586 2.47835,4.3573 2.47835,10.92898 0,8.96907 -1.31699,11.36493 -9.0923,16.54097 l -5.00678,3.33298 -0.64953,8.06748 c -1.80286,22.39222 -17.25849,73.78019 -24.31171,80.83342 -2.53121,2.53121 -3.23843,2.57045 -6.00159,0.33298 z m 32.15184,-102.73222 c 2.4286,-1.94307 2.95153,-3.09701 2.95153,-6.51245 0,-3.24207 -0.5377,-4.56957 -2.45586,-6.06294 -5.3015,-4.12756 -9.96706,-3.39463 -14.13685,2.2208 -2.41888,3.25746 -1.72623,6.92271 1.95245,10.33206 3.33646,3.09215 7.84132,3.10082 11.68873,0.0225 z m -449.85458,54.16904 c -2.22319,-5.18076 -5.64521,-28.35523 -5.64521,-38.23041 0,-8.45309 0.83412,-10.59326 4.12875,-10.59326 2.64302,0 3.47357,2.5615 4.17832,12.88746 0.35361,5.17977 1.81138,15.52093 3.23961,22.98034 1.42822,7.45941 2.32816,14.26251 1.99984,15.11799 -0.35104,0.9147 -1.77272,1.55542 -3.45146,1.55542 -2.35415,0 -3.13423,-0.65175 -4.44985,-3.71754 z m 0.79853,-67.82204 c -9.48775,-5.23458 -11.15202,-15.54418 -3.81935,-23.66052 2.18204,-2.41534 4.72752,-4.10781 6.74817,-4.48687 3.17836,-0.59627 3.36106,-0.92509 8.96414,-16.13736 8.53398,-23.16964 16.03953,-36.84259 20.2243,-36.84259 0.93781,0 2.57104,0.64398 3.62941,1.43104 2.14257,1.59337 2.05088,1.83799 -3.84652,10.25438 -3.20978,4.58071 -7.12102,13.73298 -12.71934,29.76274 l -3.9158,11.21217 3.01011,3.42832 c 3.57875,4.07602 4.46481,7.05412 3.72953,12.53596 -1.03426,7.71089 -7.80326,13.67735 -15.4597,13.62677 -2.50929,-0.0165 -5.45447,-0.5224 -6.54495,-1.12404 z m 11.94113,-9.20986 c 4.26456,-4.26456 2.72035,-10.0687 -3.15406,-11.85491 -1.48562,-0.45175 -3.03886,0.13124 -5.20456,1.95355 -2.43385,2.04794 -3.08684,3.3758 -3.08684,6.27645 0,2.02344 0.53533,4.21431 1.18961,4.86859 2.08162,2.08164 7.59973,1.41248 10.25585,-1.24368 z m 393.38239,1.22192 c -0.4118,-0.66626 -1.5233,-5.01577 -2.47002,-9.6656 -5.1202,-25.1467 -10.72158,-40.35361 -19.81597,-53.79699 -2.11672,-3.12896 -3.84861,-6.3091 -3.84861,-7.06697 0,-1.638 5.32581,-4.05208 7.28282,-3.30112 1.49573,0.57397 8.96194,13.1102 12.51531,21.01383 2.75792,6.13449 7.61035,21.75489 11.9235,38.38308 2.68812,10.36346 3.04599,12.87851 2.01013,14.12665 -1.50525,1.81375 -6.54019,2.01729 -7.59716,0.30712 z m -315.9878,-132.93511 -2.85923,-2.28792 6.82461,-5.67446 c 8.35593,-6.94772 20.4884,-15.00483 29.22322,-19.40711 5.22002,-2.63079 6.77891,-3.96291 7.73645,-6.61118 2.36207,-6.53222 11.54894,-10.15255 17.69617,-6.97369 5.19613,2.68702 7.18834,6.13287 7.18834,12.4336 0,6.26285 -1.52221,9.19862 -5.95906,11.493 -5.16035,2.66851 -10.5145,1.91087 -17.46491,-2.47139 -1.86868,-1.17821 -2.83237,-0.95644 -8.42642,1.93911 -8.34106,4.31745 -19.09218,11.26464 -24.7938,16.02134 -2.52922,2.11006 -4.9828,3.83426 -5.45239,3.83155 -0.4696,-0.003 -2.14041,-1.03448 -3.71298,-2.29285 z m 55.31936,-25.07023 c 3.23881,-1.24286 0.6976,-9.3117 -2.9326,-9.3117 -1.40117,0 -4.4214,4.24245 -4.4214,6.21058 0,2.99043 3.64111,4.52588 7.354,3.10112 z m 182.60658,26.56805 c -0.89885,-1.45435 -16.81299,-11.81943 -25.25964,-16.45195 -14.91773,-8.18154 -35.68985,-16.39949 -48.9685,-19.37311 -20.5807,-4.60885 -45.13261,-6.10756 -63.86444,-3.89838 -8.92001,1.05199 -9.54624,1.00426 -11.42108,-0.87057 -2.53259,-2.53255 -1.09156,-5.77838 2.91604,-6.5684 8.56015,-1.68746 27.89195,-2.79883 38.66578,-2.22287 l 12.14892,0.64947 v -20.13998 c 0,-14.34263 0.3424,-20.48241 1.18961,-21.3296 1.58317,-1.58318 5.23835,-1.51323 6.59907,0.12629 0.69801,0.84101 1.18902,8.78985 1.36062,22.02622 l 0.26846,20.71033 6.9394,1.15435 c 27.1759,4.52066 46.4501,12.98087 76.31462,33.49763 9.33153,6.41068 9.6889,6.75964 8.90197,8.6922 -0.77275,1.89778 -5.19989,4.95455 -5.79083,3.99837 z m 10.78651,-40.86028 c -5.45239,-3.26043 -16.82805,-9.32876 -25.27926,-13.48519 -8.4512,-4.15642 -16.14651,-8.23964 -17.10068,-9.07383 -2.42741,-2.12214 -2.16014,-4.85043 0.65578,-6.69549 2.28494,-1.49721 2.86528,-1.33012 13.1353,3.78256 19.0793,9.49815 36.77003,20.12982 40.02868,24.05618 1.13538,1.36812 0.42884,7.40827 -0.8617,7.36573 -0.3656,-0.012 -5.12573,-2.68954 -10.57812,-5.94996 z m -271.67098,0.82046 c -0.85274,-3.88284 -0.1371,-4.51849 16.35361,-14.52482 23.2471,-14.10599 46.53347,-23.06217 72.91014,-28.04195 10.89992,-2.05784 12.2415,-2.55621 16.02031,-5.95122 10.29035,-9.24514 23.14559,-4.10974 23.134,9.2416 -0.0118,13.95186 -18.70785,18.82532 -25.6183,6.67795 -2.11028,-3.70943 -5.24738,-3.76707 -19.08862,-0.35078 -12.75939,3.14929 -23.19793,6.81787 -36.17364,12.71306 -12.76245,5.79834 -36.50354,17.98116 -41.01643,21.04774 -4.58319,3.11441 -5.68893,2.97679 -6.52107,-0.81158 z m 118.57353,-35.52855 c 3.64656,-1.95159 1.33464,-9.87856 -2.88115,-9.87856 -1.78471,0 -6.10608,3.8249 -6.10608,5.40462 0,0.6015 0.69444,2.0851 1.54323,3.29688 1.66604,2.37871 4.39304,2.80989 7.444,1.17706 z m -200.64707,1.35667 c -0.36341,-0.36349 -0.66082,-6.1027 -0.66082,-12.75379 0,-10.80108 0.22335,-12.37687 2.09124,-14.7515 7.06342,-8.97972 28.54782,-25.67844 48.26525,-37.51414 31.95358,-19.1806 69.08535,-33.77466 105.28445,-41.380423 4.63453,-0.97376 10.4339,-2.235374 12.88747,-2.803584 2.45358,-0.56822 11.82177,-1.82608 20.81821,-2.79524 28.47279,-3.06731 68.4054,-2.06253 91.69929,2.30737 4.36191,0.81829 11.07331,2.076744 14.91437,2.796584 15.4146,2.888873 43.96064,11.676613 61.91477,19.060133 19.39989,7.97813 49.50838,24.69277 65.25757,36.22755 11.66128,8.54076 24.74493,20.78367 27.6457,25.86913 1.5457,2.70978 1.72801,25.01004 0.21225,25.94688 -0.5842,0.36104 -3.1493,-1.18672 -5.70023,-3.43947 -29.38512,-25.94988 -47.87516,-38.82961 -76.1234,-53.02593 -15.1284,-7.60281 -15.68643,-7.85342 -27.64907,-12.41759 -16.6962,-6.37013 -31.83452,-10.96354 -47.08881,-14.28813 -16.24486,-3.5405 -15.6333,-3.44185 -34.69703,-5.59574 -44.9502,-5.07863 -88.0104,-0.2063 -135.31841,15.31153 -13.0216,4.27129 -19.91312,7.19546 -38.6624,16.40493 -27.36019,13.43902 -48.7748,28.09806 -80.69151,55.23615 -2.81016,2.38937 -3.39961,2.6045 -4.39889,1.60528 z m 357.9149,-11.88088 c -3.70395,-2.4524 -10.99845,-6.65617 -16.20995,-9.34172 -9.1274,-4.70334 -9.7799,-4.88279 -17.75486,-4.88279 h -8.27931 l -1.65118,3.47958 c -1.75487,3.69825 -7.37381,8.68298 -11.09413,9.842 -1.23372,0.38437 -4.70898,0.69885 -7.72276,0.69885 -7.24474,0 -13.12559,-3.37831 -16.80238,-9.65238 -2.3258,-3.96859 -2.63748,-5.42398 -2.28694,-10.67738 0.49627,-7.43666 3.27739,-12.06913 9.67591,-16.11719 5.87253,-3.71525 14.61647,-3.93071 20.17216,-0.49708 4.6726,2.88784 8.29269,7.2578 9.1154,11.00374 l 0.65845,2.99776 h 8.69102 c 6.02182,0 9.72726,0.49925 12.06515,1.62558 5.02025,2.41858 28.25725,17.02512 29.53618,18.56606 1.09851,1.32372 0.4587,7.6394 -0.75877,7.48994 -0.34083,-0.0418 -3.65013,-2.08256 -7.35399,-4.53497 z M 520.81989,178.6383 c 3.64903,-3.4982 3.36531,-8.93731 -0.6536,-12.52813 -3.5957,-3.21279 -5.9197,-3.5235 -10.11765,-1.35269 -6.91026,3.57346 -6.70803,12.85463 0.34578,15.86907 3.83522,1.63896 7.33891,0.9708 10.42547,-1.98825 z m -191.78207,5.53452 c -6.65092,-4.05563 -9.46465,-11.28756 -6.83779,-17.57453 3.39971,-8.13665 9.95616,-11.49714 18.02422,-9.23824 3.87724,1.08555 5.01143,0.95264 11.48322,-1.34579 9.63646,-3.42229 24.05813,-7.19032 34.93881,-9.12858 4.90716,-0.87415 11.15262,-2.00266 13.87881,-2.50778 7.0094,-1.29875 47.06216,-2.36493 56.26966,-1.49788 6.20621,0.58442 7.89704,1.10419 8.74474,2.68807 0.79258,1.48104 0.67669,2.53452 -0.47149,4.28697 l -1.5224,2.32341 -29.52756,0.41526 c -26.592,0.37397 -30.97562,0.67807 -44.09279,3.05882 -13.62523,2.47296 -28.4691,6.12202 -36.48898,8.97011 -3.11054,1.10459 -3.43708,1.56275 -3.15454,4.42492 0.49645,5.03043 -1.60222,9.74846 -6.01767,13.52787 -4.78501,4.09585 -10.19765,4.66368 -15.22624,1.59737 z m 11.91803,-10.21573 c 0.63516,-1.81729 0.56774,-3.50091 -0.20848,-5.20456 -2.18116,-4.78702 -11.10334,-2.63426 -11.10334,2.679 0,5.89115 9.4018,7.99027 11.31182,2.52556 z"
       id="path1" /></g></svg>
